<?xml version="1.0" encoding="UTF-8"?>
<svg xmlns="http://www.w3.org/2000/svg" xmlns:xlink="http://www.w3.org/1999/xlink" viewBox="0 0 240 240" width="240px" height="240px">
<g id="surface61331433">
<path style=" stroke:none;fill-rule:nonzero;fill:rgb(100%,100%,100%);fill-opacity:1;" d="M 119.953125 8.953125 C 118.300781 8.988281 116.976562 10.347656 117 12 L 117 27.070312 C 110.777344 27.269531 104.707031 28.078125 98.847656 29.449219 L 96.503906 20.695312 C 96.164062 19.394531 95.003906 18.46875 93.65625 18.433594 C 92.707031 18.410156 91.792969 18.84375 91.21875 19.59375 C 90.632812 20.355469 90.445312 21.339844 90.703125 22.253906 L 93.046875 31.019531 C 87.140625 32.8125 81.492188 35.167969 76.136719 38.039062 L 68.589844 24.960938 C 68.050781 23.988281 66.996094 23.390625 65.859375 23.4375 C 64.804688 23.472656 63.84375 24.070312 63.339844 24.996094 C 62.835938 25.933594 62.859375 27.058594 63.410156 27.960938 L 70.945312 41.027344 C 65.742188 44.273438 60.867188 48 56.425781 52.171875 L 50.003906 45.75 C 49.429688 45.164062 48.65625 44.835938 47.847656 44.847656 C 46.617188 44.835938 45.515625 45.585938 45.058594 46.710938 C 44.601562 47.847656 44.871094 49.148438 45.75 50.003906 L 52.183594 56.4375 C 48.011719 60.878906 44.273438 65.742188 41.027344 70.945312 L 27.960938 63.410156 C 27.539062 63.140625 27.046875 63 26.542969 62.976562 C 26.4375 62.976562 26.34375 62.976562 26.25 62.988281 C 24.914062 63.070312 23.800781 64.007812 23.507812 65.308594 C 23.214844 66.609375 23.800781 67.945312 24.960938 68.589844 L 38.015625 76.125 C 35.132812 81.46875 32.765625 87.128906 30.984375 93.046875 L 22.253906 90.703125 C 21.960938 90.621094 21.667969 90.585938 21.363281 90.597656 C 19.863281 90.632812 18.632812 91.769531 18.457031 93.257812 C 18.292969 94.746094 19.253906 96.128906 20.695312 96.503906 L 29.449219 98.847656 C 28.078125 104.707031 27.269531 110.777344 27.070312 117 L 12 117 C 10.921875 116.988281 9.914062 117.550781 9.363281 118.488281 C 8.824219 119.425781 8.824219 120.574219 9.363281 121.511719 C 9.914062 122.449219 10.921875 123.011719 12 123 L 27.070312 123 C 27.269531 129.222656 28.078125 135.292969 29.449219 141.152344 L 20.695312 143.496094 C 19.640625 143.765625 18.808594 144.574219 18.527344 145.617188 C 18.234375 146.671875 18.539062 147.785156 19.3125 148.546875 C 20.085938 149.308594 21.210938 149.601562 22.253906 149.296875 L 30.984375 146.953125 C 32.765625 152.871094 35.132812 158.53125 38.015625 163.875 L 24.960938 171.410156 C 23.988281 171.914062 23.378906 172.921875 23.367188 174.023438 C 23.355469 175.125 23.941406 176.144531 24.902344 176.683594 C 25.863281 177.210938 27.035156 177.1875 27.960938 176.589844 L 41.027344 169.054688 C 44.273438 174.257812 48.011719 179.121094 52.183594 183.5625 L 45.75 189.996094 C 44.578125 191.179688 44.578125 193.078125 45.75 194.25 C 46.921875 195.421875 48.820312 195.421875 50.003906 194.25 L 56.425781 187.828125 C 60.867188 192 65.742188 195.726562 70.945312 198.972656 L 63.410156 212.027344 C 62.8125 212.964844 62.789062 214.136719 63.316406 215.097656 C 63.855469 216.058594 64.875 216.644531 65.976562 216.632812 C 67.078125 216.621094 68.085938 216.011719 68.589844 215.027344 L 76.136719 201.960938 C 81.492188 204.832031 87.140625 207.1875 93.046875 208.980469 L 90.703125 217.746094 C 90.398438 218.789062 90.691406 219.914062 91.453125 220.6875 C 92.214844 221.460938 93.328125 221.765625 94.382812 221.472656 C 95.425781 221.191406 96.234375 220.359375 96.503906 219.292969 L 98.847656 210.550781 C 104.707031 211.921875 110.777344 212.730469 117 212.917969 L 117 228 C 116.988281 229.078125 117.550781 230.085938 118.488281 230.636719 C 119.425781 231.175781 120.574219 231.175781 121.511719 230.636719 C 122.449219 230.085938 123.011719 229.078125 123 228 L 123 212.917969 C 129.222656 212.730469 135.292969 211.921875 141.152344 210.550781 L 143.496094 219.292969 C 143.765625 220.359375 144.574219 221.191406 145.617188 221.472656 C 146.671875 221.765625 147.785156 221.460938 148.546875 220.6875 C 149.308594 219.914062 149.601562 218.789062 149.296875 217.746094 L 146.953125 208.980469 C 152.859375 207.1875 158.507812 204.832031 163.863281 201.960938 L 171.410156 215.027344 C 171.914062 216.011719 172.921875 216.621094 174.023438 216.632812 C 175.125 216.644531 176.144531 216.058594 176.683594 215.097656 C 177.210938 214.136719 177.1875 212.964844 176.589844 212.027344 L 169.054688 198.972656 C 174.257812 195.726562 179.132812 192 183.574219 187.828125 L 189.996094 194.25 C 191.179688 195.421875 193.078125 195.421875 194.25 194.25 C 195.421875 193.078125 195.421875 191.179688 194.25 189.996094 L 187.816406 183.5625 C 191.988281 179.121094 195.726562 174.257812 198.972656 169.054688 L 212.027344 176.589844 C 212.964844 177.1875 214.136719 177.210938 215.097656 176.683594 C 216.058594 176.144531 216.644531 175.125 216.632812 174.023438 C 216.621094 172.921875 216.011719 171.914062 215.027344 171.410156 L 201.984375 163.875 C 204.867188 158.53125 207.234375 152.871094 209.015625 146.953125 L 217.746094 149.296875 C 218.789062 149.601562 219.914062 149.308594 220.6875 148.546875 C 221.460938 147.785156 221.765625 146.671875 221.472656 145.617188 C 221.191406 144.574219 220.359375 143.765625 219.292969 143.496094 L 210.550781 141.152344 C 211.921875 135.292969 212.730469 129.222656 212.917969 123 L 228 123 C 229.078125 123.011719 230.085938 122.449219 230.636719 121.511719 C 231.175781 120.574219 231.175781 119.425781 230.636719 118.488281 C 230.085938 117.550781 229.078125 116.988281 228 117 L 212.917969 117 C 212.730469 110.777344 211.921875 104.707031 210.550781 98.847656 L 219.292969 96.503906 C 220.78125 96.128906 221.742188 94.710938 221.554688 93.210938 C 221.355469 91.699219 220.066406 90.574219 218.542969 90.585938 C 218.273438 90.585938 218.003906 90.632812 217.746094 90.703125 L 209.015625 93.046875 C 207.234375 87.128906 204.867188 81.46875 201.984375 76.125 L 215.027344 68.589844 C 216.210938 67.933594 216.796875 66.574219 216.480469 65.273438 C 216.152344 63.960938 215.003906 63.023438 213.65625 62.988281 C 213.09375 62.964844 212.519531 63.105469 212.027344 63.410156 L 198.972656 70.945312 C 195.726562 65.742188 191.988281 60.878906 187.816406 56.4375 L 194.25 50.003906 C 195.140625 49.136719 195.410156 47.8125 194.917969 46.675781 C 194.4375 45.539062 193.300781 44.8125 192.058594 44.847656 C 191.285156 44.871094 190.546875 45.1875 189.996094 45.75 L 183.574219 52.171875 C 179.132812 48 174.257812 44.273438 169.054688 41.027344 L 176.589844 27.960938 C 177.140625 27.046875 177.164062 25.898438 176.636719 24.960938 C 176.109375 24.023438 175.125 23.4375 174.046875 23.4375 C 172.957031 23.425781 171.9375 24.011719 171.410156 24.960938 L 163.863281 38.039062 C 158.507812 35.167969 152.859375 32.8125 146.953125 31.019531 L 149.296875 22.253906 C 149.566406 21.316406 149.355469 20.320312 148.757812 19.558594 C 148.148438 18.808594 147.222656 18.386719 146.25 18.445312 C 144.9375 18.515625 143.824219 19.429688 143.496094 20.695312 L 141.152344 29.449219 C 135.292969 28.078125 129.222656 27.269531 123 27.070312 L 123 12 C 123.011719 11.191406 122.695312 10.40625 122.121094 9.832031 C 121.546875 9.257812 120.761719 8.941406 119.953125 8.953125 Z M 120 33 C 168.082031 33 207 71.917969 207 120 C 207 168.082031 168.082031 207 120 207 C 71.917969 207 33 168.082031 33 120 C 33 71.917969 71.917969 33 120 33 Z M 120 42 C 118.347656 42 117 43.347656 117 45 C 117 46.652344 118.347656 48 120 48 C 121.652344 48 123 46.652344 123 45 C 123 43.347656 121.652344 42 120 42 Z M 100.617188 44.554688 C 100.546875 44.554688 100.476562 44.554688 100.40625 44.566406 C 100.207031 44.578125 100.007812 44.601562 99.808594 44.660156 C 98.214844 45.09375 97.265625 46.734375 97.6875 48.328125 C 98.121094 49.933594 99.761719 50.882812 101.367188 50.449219 C 102.972656 50.027344 103.921875 48.386719 103.488281 46.78125 C 103.136719 45.480469 101.964844 44.566406 100.617188 44.554688 Z M 139.382812 44.566406 C 138.035156 44.566406 136.863281 45.480469 136.511719 46.78125 C 136.300781 47.554688 136.417969 48.375 136.816406 49.054688 C 137.214844 49.746094 137.871094 50.25 138.644531 50.449219 C 140.238281 50.882812 141.878906 49.933594 142.3125 48.328125 C 142.746094 46.734375 141.796875 45.09375 140.191406 44.660156 C 139.921875 44.589844 139.652344 44.554688 139.382812 44.566406 Z M 82.429688 52.042969 C 81.925781 52.054688 81.433594 52.195312 81 52.453125 C 80.308594 52.839844 79.804688 53.496094 79.59375 54.269531 C 79.394531 55.042969 79.5 55.863281 79.898438 56.542969 C 80.296875 57.234375 80.953125 57.738281 81.726562 57.949219 C 82.488281 58.148438 83.308594 58.042969 84 57.644531 C 85.429688 56.8125 85.921875 54.984375 85.089844 53.542969 C 84.550781 52.59375 83.53125 52.019531 82.429688 52.042969 Z M 157.359375 52.054688 C 156.339844 52.101562 155.414062 52.664062 154.898438 53.542969 C 154.066406 54.984375 154.570312 56.8125 156 57.644531 C 157.429688 58.476562 159.269531 57.984375 160.089844 56.542969 C 160.921875 55.113281 160.429688 53.285156 159 52.453125 C 158.496094 52.160156 157.933594 52.03125 157.359375 52.054688 Z M 67.007812 63.972656 C 66.199219 63.949219 65.414062 64.265625 64.839844 64.839844 C 63.667969 66.011719 63.667969 67.921875 64.839844 69.09375 C 65.402344 69.65625 66.164062 69.972656 66.960938 69.972656 C 67.757812 69.972656 68.519531 69.65625 69.09375 69.09375 C 70.253906 67.921875 70.253906 66.011719 69.09375 64.839844 C 68.53125 64.289062 67.792969 63.972656 67.007812 63.972656 Z M 173.074219 63.972656 C 172.265625 63.960938 171.480469 64.277344 170.90625 64.839844 C 169.746094 66.011719 169.746094 67.921875 170.90625 69.09375 C 172.078125 70.253906 173.988281 70.253906 175.160156 69.09375 C 176.320312 67.921875 176.320312 66.011719 175.160156 64.839844 C 174.597656 64.289062 173.859375 63.972656 173.074219 63.972656 Z M 184.875 79.5 C 184.371094 79.511719 183.878906 79.652344 183.445312 79.898438 C 182.753906 80.296875 182.25 80.953125 182.050781 81.726562 C 181.839844 82.488281 181.945312 83.308594 182.34375 84 C 183.175781 85.429688 185.015625 85.921875 186.445312 85.089844 C 187.875 84.269531 188.378906 82.429688 187.546875 81 C 186.996094 80.050781 185.976562 79.476562 184.875 79.5 Z M 54.902344 79.5 C 53.894531 79.558594 52.96875 80.121094 52.453125 81 C 52.054688 81.691406 51.949219 82.511719 52.148438 83.273438 C 52.359375 84.046875 52.863281 84.703125 53.542969 85.101562 C 54.984375 85.933594 56.8125 85.429688 57.644531 84 C 58.476562 82.570312 57.984375 80.730469 56.542969 79.910156 C 56.050781 79.617188 55.476562 79.476562 54.902344 79.5 Z M 47.53125 97.59375 C 46.183594 97.605469 45.011719 98.507812 44.660156 99.808594 C 44.226562 101.414062 45.175781 103.054688 46.78125 103.488281 C 48.386719 103.921875 50.027344 102.972656 50.449219 101.367188 C 50.882812 99.761719 49.933594 98.121094 48.328125 97.6875 C 48.070312 97.617188 47.800781 97.582031 47.53125 97.59375 Z M 192.5625 97.59375 C 192.257812 97.582031 191.953125 97.617188 191.671875 97.699219 C 190.066406 98.132812 189.117188 99.773438 189.550781 101.378906 C 189.972656 102.972656 191.613281 103.921875 193.21875 103.5 C 194.824219 103.066406 195.773438 101.425781 195.339844 99.820312 C 195 98.542969 193.875 97.640625 192.5625 97.59375 Z M 45 117 C 43.347656 117 42 118.347656 42 120 C 42 121.652344 43.347656 123 45 123 C 46.652344 123 48 121.652344 48 120 C 48 118.347656 46.652344 117 45 117 Z M 195 117 C 193.347656 117 192 118.347656 192 120 C 192 121.652344 193.347656 123 195 123 C 196.652344 123 198 121.652344 198 120 C 198 118.347656 196.652344 117 195 117 Z M 47.671875 136.40625 C 47.367188 136.40625 47.0625 136.429688 46.78125 136.511719 C 45.175781 136.945312 44.226562 138.585938 44.660156 140.191406 C 45.082031 141.785156 46.722656 142.734375 48.328125 142.3125 C 49.933594 141.878906 50.882812 140.238281 50.449219 138.632812 C 50.109375 137.367188 48.984375 136.464844 47.671875 136.40625 Z M 192.421875 136.417969 C 191.0625 136.429688 189.890625 137.34375 189.550781 138.644531 C 189.117188 140.25 190.066406 141.890625 191.671875 142.3125 C 193.265625 142.746094 194.90625 141.796875 195.339844 140.203125 C 195.773438 138.597656 194.824219 136.957031 193.21875 136.523438 C 192.960938 136.453125 192.691406 136.417969 192.421875 136.417969 Z M 54.972656 154.5 C 54.46875 154.511719 53.988281 154.652344 53.542969 154.898438 C 52.113281 155.730469 51.621094 157.558594 52.453125 159 C 52.839844 159.679688 53.496094 160.183594 54.269531 160.394531 C 55.042969 160.605469 55.863281 160.5 56.542969 160.089844 C 57.234375 159.703125 57.738281 159.046875 57.949219 158.273438 C 58.148438 157.5 58.042969 156.679688 57.644531 156 C 57.09375 155.050781 56.074219 154.476562 54.972656 154.5 Z M 184.804688 154.5 C 183.785156 154.558594 182.859375 155.121094 182.34375 156 C 181.523438 157.441406 182.015625 159.269531 183.445312 160.101562 C 184.136719 160.5 184.957031 160.605469 185.71875 160.40625 C 186.492188 160.195312 187.148438 159.691406 187.546875 159 C 187.945312 158.320312 188.050781 157.5 187.851562 156.726562 C 187.640625 155.953125 187.136719 155.296875 186.445312 154.910156 C 185.953125 154.617188 185.378906 154.476562 184.804688 154.5 Z M 67.007812 170.027344 C 66.199219 170.027344 65.414062 170.34375 64.839844 170.90625 C 63.679688 172.078125 63.679688 173.988281 64.839844 175.160156 C 66.011719 176.320312 67.921875 176.320312 69.09375 175.160156 C 70.253906 173.988281 70.253906 172.078125 69.09375 170.90625 C 68.53125 170.355469 67.792969 170.039062 67.007812 170.027344 Z M 173.074219 170.027344 C 172.265625 170.027344 171.480469 170.34375 170.90625 170.90625 C 169.746094 172.078125 169.746094 173.988281 170.90625 175.160156 C 172.078125 176.320312 173.988281 176.320312 175.160156 175.160156 C 176.320312 173.988281 176.320312 172.078125 175.160156 170.90625 C 174.597656 170.355469 173.859375 170.039062 173.074219 170.027344 Z M 157.417969 181.945312 C 156.925781 181.957031 156.433594 182.097656 156 182.34375 C 154.558594 183.175781 154.066406 185.015625 154.898438 186.445312 C 155.730469 187.875 157.558594 188.378906 159 187.546875 C 159.679688 187.148438 160.183594 186.492188 160.394531 185.71875 C 160.605469 184.957031 160.5 184.136719 160.089844 183.445312 C 159.550781 182.496094 158.519531 181.921875 157.417969 181.945312 Z M 82.359375 181.957031 C 81.328125 182.003906 80.402344 182.566406 79.898438 183.457031 C 79.066406 184.886719 79.570312 186.726562 81 187.546875 C 82.429688 188.378906 84.269531 187.886719 85.089844 186.457031 C 85.5 185.765625 85.605469 184.945312 85.394531 184.183594 C 85.195312 183.410156 84.691406 182.753906 84 182.355469 C 83.496094 182.0625 82.933594 181.933594 82.359375 181.957031 Z M 139.441406 189.445312 C 139.359375 189.445312 139.289062 189.445312 139.21875 189.457031 C 139.019531 189.46875 138.820312 189.503906 138.632812 189.550781 C 137.859375 189.75 137.203125 190.253906 136.804688 190.945312 C 136.40625 191.636719 136.300781 192.457031 136.5 193.21875 C 136.710938 193.992188 137.214844 194.648438 137.90625 195.046875 C 138.597656 195.445312 139.417969 195.550781 140.191406 195.339844 C 141.785156 194.917969 142.734375 193.277344 142.3125 191.671875 C 141.960938 190.371094 140.789062 189.457031 139.441406 189.445312 Z M 100.558594 189.457031 C 99.210938 189.457031 98.039062 190.371094 97.6875 191.671875 C 97.253906 193.277344 98.203125 194.917969 99.808594 195.339844 C 101.414062 195.773438 103.054688 194.824219 103.488281 193.21875 C 103.910156 191.625 102.960938 189.984375 101.355469 189.550781 C 101.097656 189.480469 100.828125 189.445312 100.558594 189.457031 Z M 120 192 C 118.347656 192 117 193.347656 117 195 C 117 196.652344 118.347656 198 120 198 C 121.652344 198 123 196.652344 123 195 C 123 193.347656 121.652344 192 120 192 Z M 120 192 "/>
</g>
</svg>
