<?xml version="1.0" encoding="UTF-8"?>
<svg xmlns="http://www.w3.org/2000/svg" xmlns:xlink="http://www.w3.org/1999/xlink" viewBox="0 0 240 240" width="240px" height="240px">
<g id="surface61336155">
<path style=" stroke:none;fill-rule:nonzero;fill:rgb(100%,100%,100%);fill-opacity:1;" d="M 120 21 C 65.398438 21 21 65.398438 21 120 C 21 174.601562 65.398438 219 120 219 C 154.710938 219 185.308594 201.0625 202.980469 173.941406 C 204.300781 171.902344 205.558594 169.800781 206.761719 167.671875 C 204.417969 167.882812 202.015625 168 199.617188 168 L 199.5 168 C 191.101562 168 182.816406 166.800781 174.867188 164.402344 C 174.769531 164.371094 174.671875 164.390625 174.574219 164.375 L 174 164.273438 L 173.929688 164.308594 C 173.023438 164.332031 172.183594 164.742188 171.632812 165.457031 L 171.597656 165.476562 L 171.585938 165.546875 C 171.398438 165.808594 171.214844 166.085938 171.117188 166.414062 C 170.949219 166.964844 171.003906 167.511719 171.140625 168.03125 L 171.125 168.125 L 171.195312 168.199219 C 171.460938 169.007812 172.042969 169.667969 172.875 170 L 172.957031 170.085938 L 173.085938 170.109375 C 173.101562 170.113281 173.117188 170.128906 173.132812 170.132812 C 180.453125 172.351562 188.039062 173.613281 195.722656 173.914062 C 178.859375 197.550781 151.199219 213 120 213 C 68.730469 213 27 171.269531 27 120 C 27 68.730469 68.730469 27 120 27 C 122.191406 27 124.378906 27.089844 126.539062 27.242188 C 123.027344 31.859375 119.9375 36.871094 117.300781 42.242188 C 116.578125 43.742188 117.183594 45.539062 118.683594 46.261719 C 120.183594 47.011719 121.953125 46.382812 122.703125 44.882812 C 125.730469 38.761719 129.386719 33.089844 133.589844 27.992188 C 135.089844 26.160156 136.648438 24.390625 138.300781 22.710938 C 135.929688 22.261719 133.527344 21.902344 131.097656 21.632812 C 127.46875 21.210938 123.75 21 120 21 Z M 205.296875 28.148438 L 201.046875 39.078125 L 190.121094 43.324219 L 201.046875 47.578125 L 205.296875 58.503906 L 209.546875 47.578125 L 220.46875 43.324219 L 209.546875 39.078125 Z M 116.3125 49.257812 L 113.90625 50.464844 L 113.4375 53.117188 L 115.269531 55.078125 L 116.3125 55.261719 L 118.714844 54.058594 L 119.191406 51.410156 L 117.351562 49.449219 Z M 113.015625 60.789062 L 110.613281 61.992188 L 110.136719 64.640625 L 111.972656 66.605469 L 113.015625 66.789062 L 115.417969 65.582031 L 115.894531 62.941406 L 114.054688 60.972656 Z M 155.605469 65.15625 L 152.511719 72.902344 L 144.765625 75.996094 L 152.511719 79.097656 L 155.605469 86.835938 L 158.707031 79.097656 L 166.449219 75.996094 L 158.707031 72.902344 Z M 111.292969 72.65625 L 108.890625 73.855469 L 108.414062 76.507812 L 110.25 78.46875 L 111.292969 78.65625 L 113.695312 77.449219 L 114.171875 74.800781 L 112.335938 72.835938 Z M 111.164062 84.640625 L 108.761719 85.847656 L 108.285156 88.496094 L 110.125 90.457031 L 111.164062 90.640625 L 113.566406 89.4375 L 114.039062 86.789062 L 112.207031 84.828125 Z M 112.703125 96.527344 L 110.300781 97.734375 L 109.828125 100.378906 L 111.660156 102.339844 L 112.703125 102.527344 L 115.105469 101.328125 L 115.582031 98.675781 L 113.742188 96.714844 Z M 115.734375 108.128906 L 113.332031 109.335938 L 112.855469 111.980469 L 114.691406 113.941406 L 115.734375 114.128906 L 118.136719 112.921875 L 118.613281 110.28125 L 116.777344 108.316406 Z M 191.605469 110.15625 L 188.511719 117.902344 L 180.765625 120.996094 L 188.511719 124.097656 L 191.605469 131.835938 L 194.707031 124.097656 L 202.449219 120.996094 L 194.707031 117.902344 Z M 120.425781 119.160156 L 118.023438 120.367188 L 117.550781 123.011719 L 119.390625 124.976562 L 120.425781 125.164062 L 122.828125 123.960938 L 123.304688 121.3125 L 121.46875 119.351562 Z M 126.535156 129.476562 L 124.132812 130.683594 L 123.65625 133.324219 L 125.492188 135.292969 L 126.535156 135.476562 L 128.9375 134.273438 L 129.410156 131.625 L 127.578125 129.664062 Z M 133.9375 138.902344 L 131.535156 140.105469 L 131.0625 142.753906 L 132.902344 144.714844 L 133.9375 144.902344 L 136.339844 143.695312 L 136.816406 141.054688 L 134.980469 139.085938 Z M 142.570312 147.222656 L 140.167969 148.429688 L 139.691406 151.074219 L 141.53125 153.035156 L 142.570312 153.222656 L 144.972656 152.023438 L 145.445312 149.375 L 143.613281 147.410156 Z M 152.269531 154.277344 L 149.859375 155.480469 L 149.390625 158.128906 L 151.226562 160.089844 L 152.269531 160.277344 L 154.671875 159.070312 L 155.144531 156.429688 L 153.304688 154.464844 Z M 162.796875 159.992188 L 160.394531 161.191406 L 159.917969 163.839844 L 161.757812 165.804688 L 162.796875 165.992188 L 165.203125 164.785156 L 165.671875 162.140625 L 163.839844 160.179688 Z M 162.796875 159.992188 "/>
</g>
</svg>
