<?xml version="1.0" encoding="UTF-8"?>
<svg xmlns="http://www.w3.org/2000/svg" xmlns:xlink="http://www.w3.org/1999/xlink" viewBox="0 0 240 240" width="240px" height="240px">
<g id="surface62208678">
<path style=" stroke:none;fill-rule:nonzero;fill:rgb(100%,100%,100%);fill-opacity:1;" d="M 68.953125 32.953125 C 67.300781 32.988281 65.976562 34.347656 66 36 L 66 44.917969 C 66 45 66 45.082031 66.011719 45.152344 C 63.539062 45.292969 61.089844 45.550781 58.722656 46.042969 C 58.699219 45.984375 58.6875 45.9375 58.675781 45.890625 L 57.234375 40.488281 C 56.894531 39.1875 55.734375 38.261719 54.386719 38.226562 C 53.4375 38.203125 52.535156 38.636719 51.949219 39.386719 C 51.363281 40.136719 51.175781 41.121094 51.433594 42.046875 L 52.875 47.4375 C 52.898438 47.507812 52.921875 47.566406 52.933594 47.625 C 50.601562 48.410156 48.339844 49.359375 46.160156 50.460938 C 46.125 50.390625 46.101562 50.332031 46.066406 50.261719 L 41.589844 42.539062 C 41.050781 41.554688 39.996094 40.957031 38.859375 41.003906 C 37.804688 41.039062 36.84375 41.636719 36.339844 42.574219 C 35.835938 43.5 35.859375 44.625 36.410156 45.539062 L 40.863281 53.261719 C 40.898438 53.320312 40.933594 53.378906 40.96875 53.4375 C 38.917969 54.785156 36.996094 56.308594 35.167969 57.9375 C 35.121094 57.867188 35.0625 57.820312 35.003906 57.761719 L 31.054688 53.8125 C 30.492188 53.226562 29.707031 52.898438 28.898438 52.910156 C 27.679688 52.910156 26.578125 53.648438 26.121094 54.773438 C 25.664062 55.910156 25.933594 57.199219 26.8125 58.054688 L 30.761719 62.003906 C 30.820312 62.0625 30.878906 62.121094 30.9375 62.167969 C 29.308594 63.996094 27.785156 65.917969 26.4375 67.96875 C 26.378906 67.933594 26.320312 67.898438 26.273438 67.863281 L 18.539062 63.410156 C 18.105469 63.140625 17.613281 63 17.109375 62.976562 C 17.015625 62.976562 16.910156 62.976562 16.804688 62.988281 C 15.480469 63.070312 14.367188 64.019531 14.074219 65.308594 C 13.78125 66.609375 14.378906 67.945312 15.539062 68.589844 L 23.273438 73.066406 C 23.332031 73.101562 23.390625 73.125 23.460938 73.160156 C 22.359375 75.339844 21.410156 77.601562 20.625 79.933594 C 20.566406 79.921875 20.507812 79.898438 20.4375 79.875 L 15.046875 78.433594 C 14.753906 78.351562 14.449219 78.316406 14.15625 78.328125 C 12.65625 78.363281 11.414062 79.5 11.25 80.988281 C 11.085938 82.476562 12.035156 83.859375 13.488281 84.234375 L 18.890625 85.675781 C 18.9375 85.6875 18.984375 85.699219 19.042969 85.710938 C 18.550781 88.078125 18.292969 90.527344 18.152344 93 C 18.082031 93 18 93 17.929688 93 L 9 93 C 7.921875 92.988281 6.914062 93.550781 6.363281 94.488281 C 5.824219 95.425781 5.824219 96.574219 6.363281 97.511719 C 6.914062 98.449219 7.921875 99.011719 9 99 L 17.929688 99 C 17.976562 99 18.035156 99 18.09375 99 C 18.234375 101.472656 18.5625 103.898438 19.054688 106.277344 C 18.996094 106.289062 18.9375 106.3125 18.890625 106.324219 L 13.488281 107.765625 C 12.433594 108.035156 11.601562 108.84375 11.308594 109.886719 C 11.027344 110.941406 11.320312 112.054688 12.09375 112.816406 C 12.867188 113.578125 13.992188 113.871094 15.046875 113.566406 L 20.4375 112.125 C 20.496094 112.101562 20.542969 112.089844 20.601562 112.078125 C 21.375 114.421875 22.335938 116.671875 23.425781 118.851562 C 23.367188 118.875 23.320312 118.910156 23.273438 118.933594 L 15.539062 123.410156 C 14.566406 123.914062 13.945312 124.921875 13.933594 126.023438 C 13.921875 127.125 14.507812 128.144531 15.46875 128.683594 C 16.429688 129.210938 17.613281 129.1875 18.539062 128.589844 L 26.273438 124.136719 C 26.320312 124.101562 26.378906 124.066406 26.425781 124.03125 C 27.773438 126.082031 29.261719 128.039062 30.890625 129.878906 C 30.84375 129.914062 30.808594 129.949219 30.761719 129.996094 L 26.8125 133.945312 C 26.027344 134.695312 25.710938 135.820312 25.992188 136.863281 C 26.261719 137.917969 27.082031 138.738281 28.136719 139.007812 C 29.179688 139.289062 30.304688 138.972656 31.054688 138.1875 L 35.003906 134.238281 C 35.050781 134.191406 35.085938 134.15625 35.121094 134.109375 C 35.683594 134.601562 36.246094 135.070312 36.820312 135.539062 C 27.292969 141.925781 21 152.671875 21 165 C 21 184.851562 37.148438 201 57 201 L 198 201 C 216.1875 201 231 186.1875 231 168 C 231 153.867188 221.929688 142.078125 209.390625 137.390625 C 209.671875 135.621094 210 133.863281 210 132 C 210 112.148438 193.851562 96 174 96 C 171.644531 96 169.441406 96.457031 167.25 96.890625 C 160.464844 80.613281 144.703125 69 126 69 C 124.394531 69 122.835938 69.105469 121.277344 69.28125 L 122.460938 68.589844 C 123.632812 67.933594 124.21875 66.574219 123.902344 65.273438 C 123.585938 63.960938 122.4375 63.035156 121.089844 62.988281 C 120.527344 62.964844 119.953125 63.105469 119.460938 63.410156 L 111.738281 67.863281 C 111.679688 67.898438 111.632812 67.933594 111.574219 67.96875 C 110.226562 65.90625 108.726562 63.960938 107.109375 62.132812 C 107.144531 62.085938 107.191406 62.050781 107.238281 62.003906 L 111.1875 58.054688 C 112.078125 57.1875 112.335938 55.875 111.855469 54.738281 C 111.375 53.589844 110.25 52.863281 109.007812 52.910156 C 108.222656 52.921875 107.484375 53.25 106.945312 53.8125 L 102.996094 57.761719 C 102.949219 57.808594 102.902344 57.855469 102.855469 57.902344 C 101.027344 56.273438 99.082031 54.773438 97.03125 53.425781 C 97.066406 53.378906 97.101562 53.320312 97.136719 53.261719 L 101.589844 45.539062 C 102.152344 44.613281 102.164062 43.464844 101.636719 42.527344 C 101.109375 41.589844 100.125 41.003906 99.046875 41.003906 C 97.945312 40.992188 96.9375 41.578125 96.410156 42.539062 L 91.933594 50.261719 C 91.910156 50.320312 91.886719 50.378906 91.863281 50.4375 C 89.683594 49.335938 87.410156 48.398438 85.066406 47.625 C 85.089844 47.554688 85.101562 47.496094 85.125 47.4375 L 86.566406 42.046875 C 86.835938 41.109375 86.625 40.101562 86.027344 39.351562 C 85.417969 38.589844 84.492188 38.179688 83.519531 38.226562 C 82.207031 38.296875 81.09375 39.210938 80.765625 40.488281 L 79.324219 45.890625 C 79.3125 45.9375 79.300781 45.996094 79.277344 46.066406 C 76.910156 45.574219 74.472656 45.257812 72 45.105469 C 72 45.046875 72 44.988281 72 44.917969 L 72 36 C 72.011719 35.191406 71.695312 34.40625 71.121094 33.832031 C 70.546875 33.257812 69.761719 32.941406 68.953125 32.953125 Z M 69 51 C 85.464844 51 99.820312 59.824219 107.671875 72.984375 C 95.648438 78.46875 86.519531 89.179688 82.933594 102.199219 C 67.078125 102.726562 54.28125 114.445312 51.761719 129.75 C 48.550781 130.230469 45.457031 131.132812 42.5625 132.386719 C 31.3125 124.21875 24 110.988281 24 96 C 24 71.109375 44.109375 51 69 51 Z M 126 75 C 143.039062 75 157.441406 85.921875 162.773438 101.109375 L 163.6875 103.722656 L 166.359375 103.019531 C 168.832031 102.375 171.375 102 174 102 C 190.605469 102 204 115.394531 204 132 C 204 134.226562 203.730469 136.394531 203.261719 138.515625 L 202.652344 141.28125 L 205.371094 142.042969 C 216.691406 145.265625 225 155.625 225 168 C 225 182.953125 212.953125 195 198 195 L 57 195 C 40.394531 195 27 181.605469 27 165 C 27 149.273438 39.035156 136.453125 54.398438 135.140625 L 56.472656 134.953125 C 56.648438 134.988281 56.824219 135 57 135 C 58.652344 135 60 133.652344 60 132 C 60 130.605469 59.039062 129.398438 57.691406 129.082031 C 60.386719 117.011719 71.097656 108 84 108 C 84.09375 108 84.386719 108.035156 84.890625 108.046875 L 87.375 108.117188 L 87.902344 105.691406 C 91.722656 88.148438 107.285156 75 126 75 Z M 96 105 C 94.347656 105 93 106.347656 93 108 C 93 109.652344 94.347656 111 96 111 C 97.652344 111 99 109.652344 99 108 C 99 106.347656 97.652344 105 96 105 Z M 168 108 C 166.347656 108 165 109.347656 165 111 C 165 112.652344 166.347656 114 168 114 C 169.652344 114 171 112.652344 171 111 C 171 109.347656 169.652344 108 168 108 Z M 105 111 C 103.347656 111 102 112.347656 102 114 C 102 115.652344 103.347656 117 105 117 C 106.652344 117 108 115.652344 108 114 C 108 112.347656 106.652344 111 105 111 Z M 168 120 C 166.347656 120 165 121.347656 165 123 C 165 124.652344 166.347656 126 168 126 C 169.652344 126 171 124.652344 171 123 C 171 121.347656 169.652344 120 168 120 Z M 69 132 C 67.347656 132 66 133.347656 66 135 C 66 136.652344 67.347656 138 69 138 C 70.652344 138 72 136.652344 72 135 C 72 133.347656 70.652344 132 69 132 Z M 81 138 C 79.347656 138 78 139.347656 78 141 C 78 142.652344 79.347656 144 81 144 C 82.652344 144 84 142.652344 84 141 C 84 139.347656 82.652344 138 81 138 Z M 201 147 C 199.347656 147 198 148.347656 198 150 C 198 151.652344 199.347656 153 201 153 C 202.652344 153 204 151.652344 204 150 C 204 148.347656 202.652344 147 201 147 Z M 195 156 C 193.347656 156 192 157.347656 192 159 C 192 160.652344 193.347656 162 195 162 C 196.652344 162 198 160.652344 198 159 C 198 157.347656 196.652344 156 195 156 Z M 195 156 "/>
</g>
</svg>
