<?xml version="1.0" encoding="UTF-8"?>
<svg xmlns="http://www.w3.org/2000/svg" xmlns:xlink="http://www.w3.org/1999/xlink" viewBox="0 0 240 240" width="240px" height="240px">
<g id="surface62210180">
<path style=" stroke:none;fill-rule:nonzero;fill:rgb(100%,100%,100%);fill-opacity:1;" d="M 57.839844 28.507812 L 52.476562 30.128906 C 27.3125 37.753906 9 61.121094 9 88.738281 C 9 108.855469 18.722656 126.726562 33.722656 137.894531 C 25.960938 144.402344 21 154.066406 21 165 C 21 184.847656 37.152344 201 57 201 L 198 201 C 216.191406 201 231 186.191406 231 168 C 231 153.867188 221.925781 142.074219 209.398438 137.390625 C 209.671875 135.617188 210 133.863281 210 132 C 210 112.152344 193.847656 96 174 96 C 171.644531 96 169.445312 96.460938 167.246094 96.894531 C 160.46875 80.617188 144.703125 69 126 69 C 106.460938 69 90.097656 81.625 83.929688 99.082031 C 66.078125 89.925781 53.835938 71.382812 53.835938 49.910156 C 53.835938 44.332031 54.683594 38.953125 56.222656 33.867188 Z M 169.519531 30 C 168.15625 29.992188 166.960938 30.902344 166.605469 32.214844 L 165.101562 37.757812 L 161.019531 39.164062 C 159.8125 39.582031 159 40.71875 159 42 C 159 43.28125 159.8125 44.417969 161.019531 44.835938 L 165.101562 46.242188 L 166.605469 51.785156 C 166.960938 53.089844 168.148438 53.996094 169.5 53.996094 C 170.851562 53.996094 172.039062 53.089844 172.394531 51.785156 L 173.898438 46.242188 L 177.980469 44.835938 C 179.1875 44.417969 180 43.28125 180 42 C 180 40.71875 179.1875 39.582031 177.980469 39.164062 L 173.898438 37.757812 L 172.394531 32.214844 C 172.042969 30.914062 170.863281 30.007812 169.515625 30 Z M 94.519531 36 C 93.15625 35.992188 91.960938 36.902344 91.605469 38.214844 L 90.101562 43.757812 L 86.019531 45.164062 C 84.8125 45.582031 84 46.71875 84 48 C 84 49.28125 84.8125 50.417969 86.019531 50.835938 L 90.101562 52.242188 L 91.605469 57.785156 C 91.960938 59.089844 93.148438 59.996094 94.5 59.996094 C 95.851562 59.996094 97.039062 59.089844 97.394531 57.785156 L 98.898438 52.242188 L 102.980469 50.835938 C 104.1875 50.417969 105 49.28125 105 48 C 105 46.71875 104.1875 45.582031 102.980469 45.164062 L 98.898438 43.757812 L 97.394531 38.214844 C 97.042969 36.914062 95.863281 36.007812 94.515625 36 Z M 49.589844 38.128906 C 48.816406 41.996094 47.835938 45.808594 47.835938 49.910156 C 47.835938 72.417969 60.007812 92.101562 78.128906 102.746094 C 64.550781 105.222656 54.019531 116.03125 51.765625 129.75 C 47.152344 130.441406 42.824219 132.007812 38.941406 134.246094 C 24.488281 124.28125 15 107.648438 15 88.742188 C 15 65.613281 29.46875 46.378906 49.585938 38.128906 Z M 199.519531 57 C 198.15625 56.992188 196.960938 57.902344 196.605469 59.214844 L 195.101562 64.757812 L 191.019531 66.164062 C 189.8125 66.582031 189 67.71875 189 69 C 189 70.28125 189.8125 71.417969 191.019531 71.835938 L 195.101562 73.242188 L 196.605469 78.785156 C 196.960938 80.089844 198.148438 80.996094 199.5 80.996094 C 200.851562 80.996094 202.039062 80.089844 202.394531 78.785156 L 203.898438 73.242188 L 207.980469 71.835938 C 209.1875 71.417969 210 70.28125 210 69 C 210 67.71875 209.1875 66.582031 207.980469 66.164062 L 203.898438 64.757812 L 202.394531 59.214844 C 202.042969 57.914062 200.863281 57.007812 199.515625 57 Z M 126 75 C 143.042969 75 157.445312 85.917969 162.773438 101.109375 L 163.6875 103.722656 L 166.367188 103.019531 C 168.832031 102.371094 171.378906 102 174 102 C 190.605469 102 204 115.394531 204 132 C 204 134.226562 203.734375 136.398438 203.269531 138.515625 L 202.660156 141.273438 L 205.378906 142.046875 C 216.6875 145.261719 225 155.621094 225 168 C 225 182.949219 212.949219 195 198 195 L 57 195 C 40.394531 195 27 181.605469 27 165 C 27 149.273438 39.039062 136.453125 54.398438 135.132812 L 56.472656 134.953125 C 56.648438 134.984375 56.824219 135 57 135 C 58.65625 135 60 133.65625 60 132 C 60 130.609375 59.039062 129.398438 57.6875 129.082031 C 60.382812 117.015625 71.09375 108 84 108 C 84.09375 108 84.386719 108.03125 84.898438 108.046875 L 87.382812 108.117188 L 87.910156 105.683594 C 91.71875 88.148438 107.285156 75 126 75 Z M 96 105 C 94.34375 105 93 106.34375 93 108 C 93 109.65625 94.34375 111 96 111 C 97.65625 111 99 109.65625 99 108 C 99 106.34375 97.65625 105 96 105 Z M 168 108 C 166.34375 108 165 109.34375 165 111 C 165 112.65625 166.34375 114 168 114 C 169.65625 114 171 112.65625 171 111 C 171 109.34375 169.65625 108 168 108 Z M 105 111 C 103.34375 111 102 112.34375 102 114 C 102 115.65625 103.34375 117 105 117 C 106.65625 117 108 115.65625 108 114 C 108 112.34375 106.65625 111 105 111 Z M 168 120 C 166.34375 120 165 121.34375 165 123 C 165 124.65625 166.34375 126 168 126 C 169.65625 126 171 124.65625 171 123 C 171 121.34375 169.65625 120 168 120 Z M 69 132 C 67.34375 132 66 133.34375 66 135 C 66 136.65625 67.34375 138 69 138 C 70.65625 138 72 136.65625 72 135 C 72 133.34375 70.65625 132 69 132 Z M 81 138 C 79.34375 138 78 139.34375 78 141 C 78 142.65625 79.34375 144 81 144 C 82.65625 144 84 142.65625 84 141 C 84 139.34375 82.65625 138 81 138 Z M 201 147 C 199.34375 147 198 148.34375 198 150 C 198 151.65625 199.34375 153 201 153 C 202.65625 153 204 151.65625 204 150 C 204 148.34375 202.65625 147 201 147 Z M 195 156 C 193.34375 156 192 157.34375 192 159 C 192 160.65625 193.34375 162 195 162 C 196.65625 162 198 160.65625 198 159 C 198 157.34375 196.65625 156 195 156 Z M 195 156 "/>
</g>
</svg>
