<?xml version="1.0" encoding="UTF-8"?>
<svg xmlns="http://www.w3.org/2000/svg" xmlns:xlink="http://www.w3.org/1999/xlink" viewBox="0 0 240 240" width="240px" height="240px">
<g id="surface62213066">
<path style=" stroke:none;fill-rule:nonzero;fill:rgb(100%,100%,100%);fill-opacity:1;" d="M 120 39 C 95.789062 39 75.632812 55.96875 70.453125 78.644531 C 55.78125 80.542969 44.085938 91.089844 40.464844 105.152344 C 18.023438 105.984375 0 124.359375 0 147 C 0 170.15625 18.84375 189 42 189 L 204 189 C 223.851562 189 240 172.851562 240 153 C 240 137.015625 229.382812 123.773438 214.921875 119.097656 C 215.460938 116.460938 216 113.8125 216 111 C 216 87.84375 197.15625 69 174 69 C 171.398438 69 168.9375 69.457031 166.5 69.925781 C 158.660156 51.832031 140.941406 39 120 39 Z M 120 45 C 139.300781 45 155.660156 57.140625 162.082031 74.167969 L 162.09375 74.238281 C 162.035156 74.484375 162 74.742188 162 75 C 162 76.652344 163.347656 78 165 78 C 166.429688 78 167.660156 76.992188 167.941406 75.597656 C 169.921875 75.246094 171.9375 75 174 75 C 193.921875 75 210 91.078125 210 111 C 210 114.152344 209.554688 117.210938 208.78125 120.175781 L 207.984375 123.140625 L 210.984375 123.84375 C 224.167969 126.996094 234 138.808594 234 153 C 234 169.605469 220.605469 183 204 183 L 42 183 C 22.078125 183 6 166.921875 6 147 C 6 127.078125 22.078125 111 42 111 C 41.90625 111 42.09375 111.035156 42.5625 111.035156 L 45.070312 111.035156 L 45.082031 111 C 46.699219 110.953125 48 109.628906 48 108 C 48 106.863281 47.355469 105.820312 46.324219 105.316406 C 49.875 93.597656 60.351562 84.914062 73.042969 84.09375 L 74.765625 84 C 74.847656 84 74.917969 84 75 84 C 76.652344 84 78 82.652344 78 81 C 78 79.945312 77.449219 78.972656 76.546875 78.433594 C 81.65625 59.191406 99.117188 45 120 45 Z M 87 78 C 85.347656 78 84 79.347656 84 81 C 84 82.652344 85.347656 84 87 84 C 88.652344 84 90 82.652344 90 81 C 90 79.347656 88.652344 78 87 78 Z M 99 84 C 97.347656 84 96 85.347656 96 87 C 96 88.652344 97.347656 90 99 90 C 100.652344 90 102 88.652344 102 87 C 102 85.347656 100.652344 84 99 84 Z M 168 84 C 166.347656 84 165 85.347656 165 87 C 165 88.652344 166.347656 90 168 90 C 169.652344 90 171 88.652344 171 87 C 171 85.347656 169.652344 84 168 84 Z M 108 93 C 106.347656 93 105 94.347656 105 96 C 105 97.652344 106.347656 99 108 99 C 109.652344 99 111 97.652344 111 96 C 111 94.347656 109.652344 93 108 93 Z M 168 96 C 166.347656 96 165 97.347656 165 99 C 165 100.652344 166.347656 102 168 102 C 169.652344 102 171 100.652344 171 99 C 171 97.347656 169.652344 96 168 96 Z M 57 105 C 55.347656 105 54 106.347656 54 108 C 54 109.652344 55.347656 111 57 111 C 58.652344 111 60 109.652344 60 108 C 60 106.347656 58.652344 105 57 105 Z M 69 111 C 67.347656 111 66 112.347656 66 114 C 66 115.652344 67.347656 117 69 117 C 70.652344 117 72 115.652344 72 114 C 72 112.347656 70.652344 111 69 111 Z M 78 120 C 76.347656 120 75 121.347656 75 123 C 75 124.652344 76.347656 126 78 126 C 79.652344 126 81 124.652344 81 123 C 81 121.347656 79.652344 120 78 120 Z M 207 129 C 205.347656 129 204 130.347656 204 132 C 204 133.652344 205.347656 135 207 135 C 208.652344 135 210 133.652344 210 132 C 210 130.347656 208.652344 129 207 129 Z M 201 138 C 199.347656 138 198 139.347656 198 141 C 198 142.652344 199.347656 144 201 144 C 202.652344 144 204 142.652344 204 141 C 204 139.347656 202.652344 138 201 138 Z M 201 138 "/>
</g>
</svg>
