<?xml version="1.0" encoding="UTF-8"?>
<svg xmlns="http://www.w3.org/2000/svg" xmlns:xlink="http://www.w3.org/1999/xlink" viewBox="0 0 240 240" width="240px" height="240px">
<g id="surface62217280">
<path style=" stroke:none;fill-rule:nonzero;fill:rgb(100%,100%,100%);fill-opacity:1;" d="M 120 27 C 96.25 27 75.730469 43.410156 70.371094 66.335938 C 55.753906 68.210938 43.792969 78.792969 40.15625 93.042969 C 17.847656 94.011719 0 112.457031 0 135 C 0 153.753906 12.378906 169.601562 29.378906 174.980469 C 27.863281 178.347656 27 182.074219 27 186 C 27 200.875 39.125 213 54 213 L 135 213 C 153.191406 213 168 198.191406 168 180 C 168 178.988281 167.9375 177.988281 167.847656 177 L 204 177 C 223.851562 177 240 160.851562 240 141 C 240 125.28125 229.957031 111.625 215.230469 106.824219 C 215.742188 104.191406 216 101.570312 216 99 C 216 75.839844 197.160156 57 174 57 C 171.625 57 169.1875 57.222656 166.722656 57.667969 C 158.679688 39.222656 140.21875 27 120 27 Z M 120 33 C 138.601562 33 155.507812 44.722656 162.078125 62.171875 L 162.101562 62.238281 C 162.035156 62.488281 162 62.742188 162 63 C 162 64.65625 163.34375 66 165 66 C 166.421875 66 167.648438 64.996094 167.9375 63.605469 C 169.992188 63.242188 172.03125 63 174 63 C 193.851562 63 210 79.148438 210 99 C 210 101.992188 209.589844 105.074219 208.773438 108.171875 L 207.988281 111.140625 L 210.976562 111.851562 C 224.53125 115.082031 234 127.070312 234 141 C 234 157.542969 220.542969 171 204 171 L 166.714844 171 C 162.785156 157.171875 150.066406 147 135 147 C 134.796875 147 134.601562 147.027344 134.394531 147.03125 C 132.828125 131.953125 120.480469 120 105 120 C 91.472656 120 80.269531 129.117188 76.546875 141.46875 C 66.5 142.667969 58.417969 149.589844 55.464844 159 L 54 159 C 45.246094 159 37.464844 163.214844 32.523438 169.703125 C 17.261719 165.535156 6 151.570312 6 135 C 6 115.15625 22.140625 99.007812 42.0625 99.007812 L 42.074219 99.007812 L 45.058594 99.070312 L 45.070312 98.992188 C 46.699219 98.957031 47.996094 97.628906 48 96 C 47.996094 94.859375 47.351562 93.820312 46.328125 93.316406 C 49.898438 81.46875 60.445312 72.917969 73.046875 72.105469 L 74.777344 71.996094 C 74.851562 72 74.925781 72 75 72 C 76.65625 72 78 70.65625 78 69 C 78 67.953125 77.453125 66.984375 76.558594 66.441406 C 81.734375 46.882812 99.488281 33 120 33 Z M 87 66 C 85.34375 66 84 67.34375 84 69 C 84 70.65625 85.34375 72 87 72 C 88.65625 72 90 70.65625 90 69 C 90 67.34375 88.65625 66 87 66 Z M 99 72 C 97.34375 72 96 73.34375 96 75 C 96 76.65625 97.34375 78 99 78 C 100.65625 78 102 76.65625 102 75 C 102 73.34375 100.65625 72 99 72 Z M 168 72 C 166.34375 72 165 73.34375 165 75 C 165 76.65625 166.34375 78 168 78 C 169.65625 78 171 76.65625 171 75 C 171 73.34375 169.65625 72 168 72 Z M 108 81 C 106.34375 81 105 82.34375 105 84 C 105 85.65625 106.34375 87 108 87 C 109.65625 87 111 85.65625 111 84 C 111 82.34375 109.65625 81 108 81 Z M 168 84 C 166.34375 84 165 85.34375 165 87 C 165 88.65625 166.34375 90 168 90 C 169.65625 90 171 88.65625 171 87 C 171 85.34375 169.65625 84 168 84 Z M 57 93 C 55.34375 93 54 94.34375 54 96 C 54 97.65625 55.34375 99 57 99 C 58.65625 99 60 97.65625 60 96 C 60 94.34375 58.65625 93 57 93 Z M 69 99 C 67.34375 99 66 100.34375 66 102 C 66 103.65625 67.34375 105 69 105 C 70.65625 105 72 103.65625 72 102 C 72 100.34375 70.65625 99 69 99 Z M 78 108 C 76.34375 108 75 109.34375 75 111 C 75 112.65625 76.34375 114 78 114 C 79.65625 114 81 112.65625 81 111 C 81 109.34375 79.65625 108 78 108 Z M 207 117 C 205.34375 117 204 118.34375 204 120 C 204 121.65625 205.34375 123 207 123 C 208.65625 123 210 121.65625 210 120 C 210 118.34375 208.65625 117 207 117 Z M 105 126 C 118.285156 126 128.980469 136.695312 128.992188 149.976562 L 128.789062 153.484375 L 132.285156 153.140625 C 133.183594 153.050781 134.09375 153 135 153 C 149.949219 153 162 165.050781 162 180 C 162 194.949219 149.949219 207 135 207 L 54 207 C 42.367188 207 33 197.632812 33 186 C 33 174.367188 42.367188 165 54 165 L 59.921875 165 C 59.949219 165 59.972656 165 60 165 C 61.65625 165 63 163.65625 63 162 C 63 160.882812 62.378906 159.863281 61.390625 159.34375 C 64.152344 152.339844 70.839844 147.328125 78.792969 147.039062 L 80.632812 146.976562 C 80.753906 146.992188 80.875 147 81 147 C 82.65625 147 84 145.65625 84 144 C 84 142.972656 83.476562 142.011719 82.605469 141.464844 C 86.042969 132.433594 94.730469 126 105 126 Z M 201 126 C 199.34375 126 198 127.34375 198 129 C 198 130.65625 199.34375 132 201 132 C 202.65625 132 204 130.65625 204 129 C 204 127.34375 202.65625 126 201 126 Z M 90 144 C 88.34375 144 87 145.34375 87 147 C 87 148.65625 88.34375 150 90 150 C 91.65625 150 93 148.65625 93 147 C 93 145.34375 91.65625 144 90 144 Z M 99 150 C 97.34375 150 96 151.34375 96 153 C 96 154.65625 97.34375 156 99 156 C 100.65625 156 102 154.65625 102 153 C 102 151.34375 100.65625 150 99 150 Z M 105 159 C 103.34375 159 102 160.34375 102 162 C 102 163.65625 103.34375 165 105 165 C 106.65625 165 108 163.65625 108 162 C 108 160.34375 106.65625 159 105 159 Z M 69 165 C 67.34375 165 66 166.34375 66 168 C 66 169.65625 67.34375 171 69 171 C 70.65625 171 72 169.65625 72 168 C 72 166.34375 70.65625 165 69 165 Z M 75 174 C 73.34375 174 72 175.34375 72 177 C 72 178.65625 73.34375 180 75 180 C 76.65625 180 78 178.65625 78 177 C 78 175.34375 76.65625 174 75 174 Z M 75 174 "/>
</g>
</svg>
