<?xml version="1.0" encoding="UTF-8"?>
<svg xmlns="http://www.w3.org/2000/svg" xmlns:xlink="http://www.w3.org/1999/xlink" viewBox="0 0 240 240" width="240px" height="240px">
<g id="surface62224880">
<path style=" stroke:none;fill-rule:nonzero;fill:rgb(100%,100%,100%);fill-opacity:1;" d="M 120 18 C 95.789062 18 75.636719 34.96875 70.449219 57.640625 C 55.785156 59.539062 44.082031 70.09375 40.464844 84.160156 C 18.027344 84.988281 0 103.363281 0 126 C 0 149.160156 18.839844 168 42 168 L 60 168 C 61.082031 168.015625 62.089844 167.445312 62.632812 166.511719 C 63.179688 165.578125 63.179688 164.421875 62.632812 163.488281 C 62.089844 162.554688 61.082031 161.984375 60 162 L 42 162 C 22.082031 162 6 145.917969 6 126 C 6 106.082031 22.082031 90 42 90 C 41.910156 90 42.09375 90.027344 42.570312 90.027344 L 45.070312 90.027344 L 45.078125 89.980469 C 46.695312 89.9375 48 88.628906 48 87 C 48 85.828125 47.308594 84.832031 46.324219 84.339844 C 49.859375 72.609375 60.347656 63.917969 73.050781 63.097656 L 74.914062 62.980469 C 74.941406 62.984375 74.96875 63 75 63 C 75.058594 63 75.109375 62.96875 75.171875 62.964844 L 75.375 62.953125 L 75.382812 62.921875 C 76.847656 62.730469 78 61.519531 78 60 C 78 58.921875 77.398438 58.015625 76.542969 57.484375 C 81.628906 38.222656 99.101562 24 120 24 C 139.300781 24 155.664062 36.144531 162.078125 53.171875 L 162.136719 53.324219 C 162.082031 53.550781 162 53.761719 162 54 C 162 55.65625 163.34375 57 165 57 C 166.441406 57 167.585938 55.960938 167.878906 54.609375 C 169.882812 54.25 171.914062 54 174 54 C 193.917969 54 210 70.082031 210 90 C 210 93.152344 209.554688 96.210938 208.777344 99.167969 L 207.992188 102.140625 L 210.980469 102.847656 C 224.171875 106 234 117.808594 234 132 C 234 148.605469 220.605469 162 204 162 L 168 162 C 166.917969 161.984375 165.910156 162.554688 165.367188 163.488281 C 164.820312 164.421875 164.820312 165.578125 165.367188 166.511719 C 165.910156 167.445312 166.917969 168.015625 168 168 L 204 168 C 223.847656 168 240 151.847656 240 132 C 240 116.015625 229.378906 102.777344 214.921875 98.097656 C 215.457031 95.460938 216 92.816406 216 90 C 216 66.839844 197.160156 48 174 48 C 171.394531 48 168.941406 48.460938 166.492188 48.921875 C 158.65625 30.832031 140.941406 18 120 18 Z M 87 57 C 85.34375 57 84 58.34375 84 60 C 84 61.65625 85.34375 63 87 63 C 88.65625 63 90 61.65625 90 60 C 90 58.34375 88.65625 57 87 57 Z M 99 63 C 97.34375 63 96 64.34375 96 66 C 96 67.65625 97.34375 69 99 69 C 100.65625 69 102 67.65625 102 66 C 102 64.34375 100.65625 63 99 63 Z M 168 63 C 166.34375 63 165 64.34375 165 66 C 165 67.65625 166.34375 69 168 69 C 169.65625 69 171 67.65625 171 66 C 171 64.34375 169.65625 63 168 63 Z M 108 72 C 106.34375 72 105 73.34375 105 75 C 105 76.65625 106.34375 78 108 78 C 109.65625 78 111 76.65625 111 75 C 111 73.34375 109.65625 72 108 72 Z M 168 75 C 166.34375 75 165 76.34375 165 78 C 165 79.65625 166.34375 81 168 81 C 169.65625 81 171 79.65625 171 78 C 171 76.34375 169.65625 75 168 75 Z M 57 84 C 55.34375 84 54 85.34375 54 87 C 54 88.65625 55.34375 90 57 90 C 58.65625 90 60 88.65625 60 87 C 60 85.34375 58.65625 84 57 84 Z M 69 90 C 67.34375 90 66 91.34375 66 93 C 66 94.65625 67.34375 96 69 96 C 70.65625 96 72 94.65625 72 93 C 72 91.34375 70.65625 90 69 90 Z M 78 99 C 76.34375 99 75 100.34375 75 102 C 75 103.65625 76.34375 105 78 105 C 79.65625 105 81 103.65625 81 102 C 81 100.34375 79.65625 99 78 99 Z M 207 108 C 205.34375 108 204 109.34375 204 111 C 204 112.65625 205.34375 114 207 114 C 208.65625 114 210 112.65625 210 111 C 210 109.34375 208.65625 108 207 108 Z M 201 117 C 199.34375 117 198 118.34375 198 120 C 198 121.65625 199.34375 123 201 123 C 202.65625 123 204 121.65625 204 120 C 204 118.34375 202.65625 117 201 117 Z M 150.394531 126.023438 L 147.851562 126.910156 L 147.257812 127.78125 L 143.601562 136.007812 L 143.730469 138.691406 L 145.953125 140.195312 L 148.496094 139.316406 L 149.085938 138.445312 L 152.742188 130.21875 L 152.621094 127.535156 Z M 108.484375 126.039062 L 105.917969 126.835938 L 105.296875 127.691406 L 101.382812 135.800781 L 101.425781 138.484375 L 103.597656 140.066406 L 106.164062 139.265625 L 106.785156 138.410156 L 110.699219 130.304688 L 110.660156 127.617188 Z M 123.4375 138.035156 L 120.882812 138.875 L 120.28125 139.734375 L 116.492188 147.902344 L 116.566406 150.585938 L 118.769531 152.132812 L 121.324219 151.296875 L 121.933594 150.425781 L 125.71875 142.265625 L 125.644531 139.578125 Z M 96.742188 150.351562 L 94.175781 151.152344 L 93.5625 152.007812 L 89.648438 160.113281 L 89.6875 162.800781 L 91.863281 164.378906 L 94.429688 163.582031 L 95.050781 162.726562 L 98.964844 154.617188 L 98.921875 151.933594 Z M 139.421875 150.699219 L 136.886719 151.578125 L 136.296875 152.453125 L 132.640625 160.679688 L 132.761719 163.363281 L 134.988281 164.871094 L 137.523438 163.992188 L 138.121094 163.113281 L 141.773438 154.890625 L 141.648438 152.207031 Z M 112.074219 162.519531 L 109.519531 163.359375 L 108.910156 164.226562 L 105.117188 172.390625 L 105.199219 175.078125 L 107.402344 176.617188 L 109.953125 175.78125 L 110.5625 174.914062 L 114.351562 166.753906 L 114.269531 164.070312 Z M 85.007812 174.667969 L 82.441406 175.46875 L 81.820312 176.328125 L 77.90625 184.429688 L 77.945312 187.117188 L 80.125 188.695312 L 82.691406 187.894531 L 83.3125 187.035156 L 87.222656 178.933594 L 87.1875 176.242188 Z M 128.460938 175.371094 L 125.917969 176.25 L 125.328125 177.128906 L 121.671875 185.347656 L 121.796875 188.039062 L 124.019531 189.542969 L 126.5625 188.664062 L 127.15625 187.785156 L 130.8125 179.566406 L 130.6875 176.878906 Z M 100.699219 187.015625 L 98.144531 187.851562 L 97.539062 188.714844 L 93.75 196.882812 L 93.832031 199.5625 L 96.03125 201.109375 L 98.585938 200.265625 L 99.195312 199.40625 L 102.980469 191.242188 L 102.902344 188.554688 Z M 73.269531 198.984375 L 70.703125 199.78125 L 70.082031 200.640625 L 66.167969 208.746094 L 66.210938 211.433594 L 68.382812 213.011719 L 70.949219 212.207031 L 71.570312 211.351562 L 75.484375 203.25 L 75.445312 200.558594 Z M 117.492188 200.046875 L 114.953125 200.921875 L 114.363281 201.800781 L 111.257812 208.78125 L 111.378906 211.464844 L 113.605469 212.976562 L 116.148438 212.089844 L 116.742188 211.21875 L 119.839844 204.234375 L 119.71875 201.550781 Z M 89.332031 211.5 L 86.777344 212.339844 L 86.167969 213.203125 L 82.378906 221.367188 L 82.460938 224.054688 L 84.664062 225.597656 L 87.210938 224.757812 L 87.820312 223.890625 L 91.613281 215.730469 L 91.53125 213.046875 Z M 89.332031 211.5 "/>
</g>
</svg>
