<svg xmlns="http://www.w3.org/2000/svg" width="216.184" height="228.339" viewBox="0 0 216.184 228.339"><g transform="translate(96.615 -438.174)"><g transform="translate(-92 465.508)"><path d="M105.784,18A44.879,44.879,0,0,0,62.1,52.945,31.368,31.368,0,0,0,35.671,76.323a36.965,36.965,0,0,0,1.353,73.908H52.892a2.645,2.645,0,1,0,0-5.289H37.025a31.735,31.735,0,1,1,0-63.471c-.079,0,.083.024.5.024h2.2l.007-.041a2.617,2.617,0,0,0,1.1-4.972A26.4,26.4,0,0,1,64.4,57.755l1.643-.1a.489.489,0,0,0,.076.017c.052,0,.1-.028.152-.031l.179-.01.007-.028a2.578,2.578,0,0,0,1.023-4.793,39.614,39.614,0,0,1,75.4-3.8l.052.134a2.494,2.494,0,0,0-.121.6,2.645,2.645,0,0,0,2.645,2.645,2.614,2.614,0,0,0,2.538-2.107,30.458,30.458,0,0,1,5.4-.537,31.629,31.629,0,0,1,30.657,39.817l-.692,2.621,2.634.623a26.434,26.434,0,0,1-6.153,52.145H148.1a2.645,2.645,0,1,0,0,5.289h31.735a31.532,31.532,0,0,0,9.628-61.621,35.483,35.483,0,0,0,.95-7.138,37.065,37.065,0,0,0-37.025-37.025,35.356,35.356,0,0,0-6.619.813A44.729,44.729,0,0,0,105.784,18ZM76.694,52.38a2.645,2.645,0,1,0,2.645,2.645A2.645,2.645,0,0,0,76.694,52.38Zm10.578,5.289a2.645,2.645,0,1,0,2.645,2.645A2.645,2.645,0,0,0,87.272,57.669Zm60.826,0a2.645,2.645,0,1,0,2.645,2.645A2.645,2.645,0,0,0,148.1,57.669ZM95.206,65.6a2.645,2.645,0,1,0,2.645,2.645A2.645,2.645,0,0,0,95.206,65.6ZM148.1,68.248a2.645,2.645,0,1,0,2.645,2.645A2.645,2.645,0,0,0,148.1,68.248ZM50.248,76.181a2.645,2.645,0,1,0,2.645,2.645A2.645,2.645,0,0,0,50.248,76.181Zm10.578,5.289a2.645,2.645,0,1,0,2.645,2.645A2.645,2.645,0,0,0,60.826,81.471ZM68.76,89.4A2.645,2.645,0,1,0,71.4,92.049,2.645,2.645,0,0,0,68.76,89.4Zm113.718,7.934a2.645,2.645,0,1,0,2.645,2.645A2.646,2.646,0,0,0,182.478,97.338Zm-5.289,7.934a2.645,2.645,0,1,0,2.645,2.645A2.646,2.646,0,0,0,177.189,105.272Zm-44.61,7.954-2.242.782-.524.768-3.223,7.252.113,2.365,1.96,1.326,2.242-.775.52-.768,3.223-7.252-.107-2.366Zm-36.946.014-2.262.7-.547.754-3.45,7.149.038,2.365,1.915,1.395,2.262-.705.547-.755L97.585,117l-.034-2.37Zm13.183,10.575-2.252.74-.531.757-3.34,7.2.065,2.366,1.943,1.364,2.251-.737.538-.768,3.337-7.193-.065-2.37ZM85.282,134.673l-2.262.705-.541.755-3.45,7.145.034,2.37,1.918,1.391,2.262-.7.548-.754,3.45-7.149-.038-2.365Zm37.624.306-2.235.775-.52.771-3.223,7.252.107,2.365L119,147.472l2.235-.775.527-.775,3.219-7.248-.11-2.366ZM98.8,145.4l-2.251.74-.538.765-3.344,7.2.072,2.369,1.942,1.357,2.249-.737.538-.764,3.34-7.193-.072-2.366Zm-23.86,10.709-2.262.706-.548.757-3.45,7.142.034,2.369,1.921,1.391,2.262-.705.548-.758,3.447-7.141-.031-2.373Zm38.306.62L111,157.5l-.52.775-3.223,7.245.11,2.372,1.96,1.326,2.242-.775.523-.775,3.224-7.245-.11-2.369ZM88.77,166.994l-2.252.737-.534.761-3.34,7.2.072,2.363,1.939,1.363,2.252-.743.537-.758,3.336-7.2-.069-2.369Zm-24.18,10.55-2.262.7L61.78,179l-3.45,7.145.038,2.37,1.915,1.391,2.262-.71.548-.754,3.45-7.142-.034-2.372Zm38.984.937-2.238.771-.52.775-2.737,6.153.107,2.366,1.962,1.333,2.242-.782.524-.768,2.731-6.158-.107-2.365Zm-24.824,10.1-2.252.74-.537.761-3.34,7.2.072,2.37,1.942,1.36,2.245-.74.537-.764,3.344-7.194-.072-2.365Zm0,0" fill="#fff"/></g><path d="M140.333,310.667,146,307s-30-26.333-22.667-56,33-40,33-40-3.667,22,3.333,38,24.667,26,24.667,26l6.333-3.667S173,261.667,165,242.333s0-41.667,0-41.667-42,9-48.667,48.333S140.333,310.667,140.333,310.667Z" transform="translate(-212 237.508)" fill="#fff"/></g></svg>