<?xml version="1.0" encoding="UTF-8"?>
<svg xmlns="http://www.w3.org/2000/svg" xmlns:xlink="http://www.w3.org/1999/xlink" viewBox="0 0 240 240" width="240px" height="240px">
<g id="surface61385011">
<path style=" stroke:none;fill-rule:nonzero;fill:rgb(100%,100%,100%);fill-opacity:1;" d="M 120 18 C 95.789062 18 75.636719 34.96875 70.449219 57.640625 C 55.785156 59.539062 44.082031 70.09375 40.464844 84.160156 C 18.027344 84.988281 0 103.363281 0 126 C 0 149.160156 18.839844 168 42 168 L 57 168 C 58.082031 168.015625 59.089844 167.445312 59.632812 166.511719 C 60.179688 165.578125 60.179688 164.421875 59.632812 163.488281 C 59.089844 162.554688 58.082031 161.984375 57 162 L 42 162 C 22.082031 162 6 145.917969 6 126 C 6 106.082031 22.082031 90 42 90 C 41.910156 90 42.09375 90.027344 42.570312 90.027344 L 45.070312 90.027344 L 45.078125 89.992188 C 46.699219 89.953125 47.996094 88.625 48 87 C 47.996094 85.859375 47.351562 84.820312 46.332031 84.316406 C 49.871094 72.597656 60.351562 63.917969 73.050781 63.097656 L 74.765625 62.992188 C 74.84375 63 74.921875 63 75 63 C 76.65625 63 78 61.65625 78 60 C 78 58.949219 77.449219 57.976562 76.554688 57.433594 C 81.660156 38.195312 99.121094 24 120 24 C 139.300781 24 155.664062 36.144531 162.078125 53.171875 L 162.101562 53.238281 C 162.035156 53.488281 162 53.742188 162 54 C 162 55.65625 163.34375 57 165 57 C 166.425781 57 167.65625 55.996094 167.941406 54.597656 C 169.925781 54.246094 171.9375 54 174 54 C 193.917969 54 210 70.082031 210 90 C 210 93.152344 209.554688 96.210938 208.777344 99.167969 L 207.992188 102.140625 L 210.980469 102.847656 C 224.171875 106 234 117.808594 234 132 C 234 148.605469 220.605469 162 204 162 L 195 162 C 193.917969 161.984375 192.910156 162.554688 192.367188 163.488281 C 191.820312 164.421875 191.820312 165.578125 192.367188 166.511719 C 192.910156 167.445312 193.917969 168.015625 195 168 L 204 168 C 223.847656 168 240 151.847656 240 132 C 240 116.015625 229.378906 102.777344 214.921875 98.097656 C 215.457031 95.460938 216 92.816406 216 90 C 216 66.839844 197.160156 48 174 48 C 171.394531 48 168.941406 48.460938 166.492188 48.921875 C 158.65625 30.832031 140.941406 18 120 18 Z M 87 57 C 85.34375 57 84 58.34375 84 60 C 84 61.65625 85.34375 63 87 63 C 88.65625 63 90 61.65625 90 60 C 90 58.34375 88.65625 57 87 57 Z M 99 63 C 97.34375 63 96 64.34375 96 66 C 96 67.65625 97.34375 69 99 69 C 100.65625 69 102 67.65625 102 66 C 102 64.34375 100.65625 63 99 63 Z M 168 63 C 166.34375 63 165 64.34375 165 66 C 165 67.65625 166.34375 69 168 69 C 169.65625 69 171 67.65625 171 66 C 171 64.34375 169.65625 63 168 63 Z M 108 72 C 106.34375 72 105 73.34375 105 75 C 105 76.65625 106.34375 78 108 78 C 109.65625 78 111 76.65625 111 75 C 111 73.34375 109.65625 72 108 72 Z M 168 75 C 166.34375 75 165 76.34375 165 78 C 165 79.65625 166.34375 81 168 81 C 169.65625 81 171 79.65625 171 78 C 171 76.34375 169.65625 75 168 75 Z M 57 84 C 55.34375 84 54 85.34375 54 87 C 54 88.65625 55.34375 90 57 90 C 58.65625 90 60 88.65625 60 87 C 60 85.34375 58.65625 84 57 84 Z M 69 90 C 67.34375 90 66 91.34375 66 93 C 66 94.65625 67.34375 96 69 96 C 70.65625 96 72 94.65625 72 93 C 72 91.34375 70.65625 90 69 90 Z M 78 99 C 76.34375 99 75 100.34375 75 102 C 75 103.65625 76.34375 105 78 105 C 79.65625 105 81 103.65625 81 102 C 81 100.34375 79.65625 99 78 99 Z M 207 108 C 205.34375 108 204 109.34375 204 111 C 204 112.65625 205.34375 114 207 114 C 208.65625 114 210 112.65625 210 111 C 210 109.34375 208.65625 108 207 108 Z M 120.421875 114 L 119.652344 115.839844 L 91.488281 183 L 120 183 L 120 222 L 125.828125 222 L 151.457031 159 L 126 159 L 126 114 Z M 201 117 C 199.34375 117 198 118.34375 198 120 C 198 121.65625 199.34375 123 201 123 C 202.65625 123 204 121.65625 204 120 C 204 118.34375 202.65625 117 201 117 Z M 120 130.523438 L 120 165 L 142.539062 165 L 126 205.660156 L 126 177 L 100.511719 177 Z M 78.144531 158.964844 C 76.941406 159.035156 75.898438 159.816406 75.492188 160.953125 L 63.15625 193.953125 C 62.746094 194.964844 62.914062 196.121094 63.601562 196.96875 C 64.289062 197.820312 65.386719 198.230469 66.460938 198.039062 C 67.539062 197.847656 68.425781 197.085938 68.777344 196.050781 L 81.113281 163.050781 C 81.480469 162.097656 81.34375 161.023438 80.742188 160.199219 C 80.144531 159.371094 79.164062 158.90625 78.144531 158.964844 Z M 176.839844 158.964844 C 175.636719 159.035156 174.59375 159.816406 174.1875 160.953125 L 161.859375 193.953125 C 161.445312 194.964844 161.617188 196.121094 162.304688 196.96875 C 162.992188 197.820312 164.085938 198.230469 165.164062 198.039062 C 166.238281 197.847656 167.128906 197.085938 167.480469 196.050781 L 179.8125 163.050781 C 180.183594 162.097656 180.042969 161.019531 179.441406 160.195312 C 178.84375 159.367188 177.863281 158.90625 176.839844 158.964844 Z M 61.328125 203.964844 C 60.125 204.035156 59.082031 204.816406 58.675781 205.953125 L 54.1875 217.953125 C 53.8125 218.957031 54.003906 220.085938 54.683594 220.910156 C 55.367188 221.738281 56.441406 222.136719 57.496094 221.960938 C 58.554688 221.78125 59.4375 221.054688 59.8125 220.050781 L 64.296875 208.050781 C 64.664062 207.097656 64.527344 206.023438 63.925781 205.199219 C 63.328125 204.371094 62.347656 203.90625 61.328125 203.964844 Z M 160.023438 203.964844 C 158.820312 204.035156 157.777344 204.816406 157.371094 205.953125 L 152.886719 217.953125 C 152.476562 218.964844 152.644531 220.121094 153.332031 220.96875 C 154.019531 221.820312 155.117188 222.230469 156.191406 222.039062 C 157.269531 221.847656 158.15625 221.085938 158.507812 220.050781 L 162.992188 208.050781 C 163.359375 207.097656 163.222656 206.023438 162.621094 205.199219 C 162.023438 204.371094 161.042969 203.90625 160.023438 203.964844 Z M 160.023438 203.964844 "/>
</g>
</svg>
