<?xml version="1.0" encoding="UTF-8"?>
<svg xmlns="http://www.w3.org/2000/svg" xmlns:xlink="http://www.w3.org/1999/xlink" viewBox="0 0 240 240" width="240px" height="240px">
<g id="surface59731370">
<path style=" stroke:none;fill-rule:nonzero;fill:rgb(100%,100%,100%);fill-opacity:1;" d="M 120 17.472656 C 95.789062 17.472656 75.636719 34.441406 70.449219 57.109375 C 55.785156 59.011719 44.082031 69.566406 40.464844 83.628906 C 18.027344 84.460938 0 102.835938 0 125.472656 C 0 148.632812 18.839844 167.472656 42 167.472656 L 57 167.472656 C 58.082031 167.488281 59.089844 166.917969 59.632812 165.984375 C 60.179688 165.050781 60.179688 163.894531 59.632812 162.960938 C 59.089844 162.027344 58.082031 161.457031 57 161.472656 L 42 161.472656 C 22.082031 161.472656 6 145.390625 6 125.472656 C 6 105.554688 22.082031 89.472656 42 89.472656 C 41.910156 89.472656 42.09375 89.496094 42.570312 89.496094 L 45.070312 89.496094 L 45.078125 89.453125 C 46.695312 89.410156 48 88.101562 48 86.472656 C 48 85.296875 47.304688 84.304688 46.320312 83.8125 C 49.851562 72.078125 60.34375 63.390625 73.050781 62.570312 L 74.914062 62.453125 C 74.941406 62.457031 74.96875 62.472656 75 62.472656 C 75.058594 62.472656 75.109375 62.441406 75.171875 62.4375 L 75.375 62.425781 L 75.382812 62.394531 C 76.847656 62.203125 78 60.992188 78 59.472656 C 78 58.394531 77.398438 57.488281 76.542969 56.957031 C 81.628906 37.695312 99.101562 23.472656 120 23.472656 C 139.300781 23.472656 155.664062 35.617188 162.078125 52.644531 L 162.136719 52.796875 C 162.082031 53.023438 162 53.234375 162 53.472656 C 162 55.128906 163.34375 56.472656 165 56.472656 C 166.441406 56.472656 167.585938 55.433594 167.878906 54.082031 C 169.882812 53.722656 171.914062 53.472656 174 53.472656 C 193.917969 53.472656 210 69.554688 210 89.472656 C 210 92.625 209.554688 95.683594 208.777344 98.640625 L 207.992188 101.605469 L 210.980469 102.320312 C 224.171875 105.472656 234 117.28125 234 131.472656 C 234 148.078125 220.605469 161.472656 204 161.472656 L 201 161.472656 C 199.917969 161.457031 198.910156 162.027344 198.367188 162.960938 C 197.820312 163.894531 197.820312 165.050781 198.367188 165.984375 C 198.910156 166.917969 199.917969 167.488281 201 167.472656 L 204 167.472656 C 223.847656 167.472656 240 151.320312 240 131.472656 C 240 115.488281 229.378906 102.25 214.921875 97.570312 C 215.457031 94.933594 216 92.289062 216 89.472656 C 216 66.3125 197.160156 47.472656 174 47.472656 C 171.394531 47.472656 168.941406 47.933594 166.492188 48.390625 C 158.65625 30.304688 140.941406 17.472656 120 17.472656 Z M 87 56.472656 C 85.34375 56.472656 84 57.816406 84 59.472656 C 84 61.128906 85.34375 62.472656 87 62.472656 C 88.65625 62.472656 90 61.128906 90 59.472656 C 90 57.816406 88.65625 56.472656 87 56.472656 Z M 99 62.472656 C 97.34375 62.472656 96 63.816406 96 65.472656 C 96 67.128906 97.34375 68.472656 99 68.472656 C 100.65625 68.472656 102 67.128906 102 65.472656 C 102 63.816406 100.65625 62.472656 99 62.472656 Z M 168 62.472656 C 166.34375 62.472656 165 63.816406 165 65.472656 C 165 67.128906 166.34375 68.472656 168 68.472656 C 169.65625 68.472656 171 67.128906 171 65.472656 C 171 63.816406 169.65625 62.472656 168 62.472656 Z M 108 71.472656 C 106.34375 71.472656 105 72.816406 105 74.472656 C 105 76.128906 106.34375 77.472656 108 77.472656 C 109.65625 77.472656 111 76.128906 111 74.472656 C 111 72.816406 109.65625 71.472656 108 71.472656 Z M 168 74.472656 C 166.34375 74.472656 165 75.816406 165 77.472656 C 165 79.128906 166.34375 80.472656 168 80.472656 C 169.65625 80.472656 171 79.128906 171 77.472656 C 171 75.816406 169.65625 74.472656 168 74.472656 Z M 57 83.472656 C 55.34375 83.472656 54 84.816406 54 86.472656 C 54 88.128906 55.34375 89.472656 57 89.472656 C 58.65625 89.472656 60 88.128906 60 86.472656 C 60 84.816406 58.65625 83.472656 57 83.472656 Z M 69 89.472656 C 67.34375 89.472656 66 90.816406 66 92.472656 C 66 94.128906 67.34375 95.472656 69 95.472656 C 70.65625 95.472656 72 94.128906 72 92.472656 C 72 90.816406 70.65625 89.472656 69 89.472656 Z M 129 93 C 127.34375 93 126 94.34375 126 96 C 126 97.65625 127.34375 99 129 99 C 130.65625 99 132 97.65625 132 96 C 132 94.34375 130.65625 93 129 93 Z M 78 98.472656 C 76.34375 98.472656 75 99.816406 75 101.472656 C 75 103.128906 76.34375 104.472656 78 104.472656 C 79.65625 104.472656 81 103.128906 81 101.472656 C 81 99.816406 79.65625 98.472656 78 98.472656 Z M 128.953125 104.960938 C 127.296875 104.984375 125.976562 106.34375 126 108 L 126 115.757812 L 122.121094 111.878906 C 121.554688 111.296875 120.78125 110.972656 119.972656 110.972656 C 118.75 110.972656 117.652344 111.710938 117.191406 112.84375 C 116.730469 113.972656 117.003906 115.269531 117.878906 116.121094 L 126 124.242188 L 126 147.453125 C 119.523438 143.21875 113.050781 138.980469 106.578125 134.75 C 105.792969 131.003906 105.003906 127.257812 104.222656 123.511719 C 103.941406 122.078125 102.671875 121.054688 101.214844 121.085938 C 100.316406 121.101562 99.472656 121.523438 98.914062 122.234375 C 98.359375 122.941406 98.152344 123.863281 98.351562 124.742188 C 98.722656 126.53125 99.101562 128.316406 99.476562 130.109375 C 97.308594 128.691406 95.140625 127.277344 92.976562 125.859375 C 91.589844 124.953125 89.726562 125.34375 88.824219 126.734375 C 87.917969 128.121094 88.308594 129.980469 89.695312 130.886719 C 91.859375 132.300781 94.023438 133.714844 96.1875 135.128906 C 94.398438 135.503906 92.609375 135.878906 90.820312 136.253906 C 89.746094 136.449219 88.867188 137.210938 88.519531 138.246094 C 88.167969 139.277344 88.410156 140.417969 89.140625 141.226562 C 89.875 142.03125 90.988281 142.375 92.050781 142.125 C 95.796875 141.339844 99.539062 140.558594 103.289062 139.777344 C 110.03125 144.183594 116.773438 148.59375 123.515625 153 C 116.773438 157.40625 110.03125 161.816406 103.289062 166.226562 C 99.539062 165.441406 95.796875 164.660156 92.050781 163.875 C 91.855469 163.828125 91.65625 163.804688 91.453125 163.800781 C 89.890625 163.761719 88.558594 164.925781 88.394531 166.480469 C 88.230469 168.035156 89.285156 169.457031 90.820312 169.746094 C 92.609375 170.121094 94.398438 170.496094 96.1875 170.871094 C 94.023438 172.285156 91.859375 173.699219 89.695312 175.113281 C 88.308594 176.019531 87.917969 177.878906 88.824219 179.269531 C 89.726562 180.65625 91.589844 181.046875 92.976562 180.140625 C 95.140625 178.726562 97.308594 177.308594 99.476562 175.894531 C 99.101562 177.679688 98.722656 179.46875 98.351562 181.261719 C 98.097656 182.320312 98.441406 183.433594 99.25 184.167969 C 100.054688 184.902344 101.195312 185.140625 102.230469 184.792969 C 103.261719 184.445312 104.023438 183.5625 104.222656 182.492188 C 105.003906 178.742188 105.785156 174.996094 106.570312 171.253906 C 113.046875 167.019531 119.523438 162.785156 126 158.550781 L 126 181.757812 L 117.878906 189.878906 C 117.09375 190.632812 116.78125 191.75 117.054688 192.800781 C 117.328125 193.851562 118.148438 194.671875 119.199219 194.945312 C 120.25 195.21875 121.367188 194.90625 122.121094 194.121094 L 126 190.242188 L 126 198 C 125.984375 199.082031 126.554688 200.089844 127.488281 200.632812 C 128.421875 201.179688 129.578125 201.179688 130.511719 200.632812 C 131.445312 200.089844 132.015625 199.082031 132 198 L 132 190.242188 L 135.878906 194.121094 C 136.632812 194.90625 137.75 195.21875 138.800781 194.945312 C 139.851562 194.671875 140.671875 193.851562 140.945312 192.800781 C 141.21875 191.75 140.90625 190.632812 140.121094 189.878906 L 132 181.757812 L 132 158.550781 C 138.472656 162.78125 144.949219 167.011719 151.421875 171.246094 C 152.207031 174.996094 152.992188 178.742188 153.777344 182.492188 C 153.976562 183.5625 154.738281 184.445312 155.769531 184.792969 C 156.804688 185.140625 157.945312 184.902344 158.75 184.167969 C 159.558594 183.433594 159.902344 182.320312 159.648438 181.261719 C 159.277344 179.472656 158.902344 177.683594 158.53125 175.894531 C 160.695312 177.304688 162.855469 178.722656 165.015625 180.136719 C 166.402344 181.042969 168.265625 180.652344 169.171875 179.269531 C 170.078125 177.882812 169.691406 176.019531 168.304688 175.113281 C 166.140625 173.699219 163.976562 172.285156 161.8125 170.871094 C 163.605469 170.496094 165.394531 170.121094 167.183594 169.746094 C 168.730469 169.445312 169.78125 168 169.589844 166.4375 C 169.398438 164.875 168.03125 163.722656 166.457031 163.804688 C 166.289062 163.8125 166.121094 163.835938 165.953125 163.875 C 162.210938 164.660156 158.460938 165.441406 154.714844 166.226562 C 147.976562 161.816406 141.230469 157.410156 134.488281 153 C 141.234375 148.59375 147.976562 144.183594 154.714844 139.777344 C 158.460938 140.558594 162.210938 141.339844 165.953125 142.125 C 167.015625 142.375 168.128906 142.03125 168.863281 141.226562 C 169.597656 140.417969 169.835938 139.277344 169.488281 138.246094 C 169.140625 137.210938 168.257812 136.449219 167.183594 136.253906 C 165.394531 135.878906 163.601562 135.503906 161.8125 135.128906 C 163.976562 133.714844 166.140625 132.300781 168.304688 130.886719 C 169.691406 129.980469 170.078125 128.117188 169.171875 126.734375 C 168.265625 125.347656 166.402344 124.957031 165.015625 125.867188 C 162.855469 127.277344 160.695312 128.695312 158.53125 130.109375 C 158.90625 128.320312 159.277344 126.527344 159.648438 124.742188 C 159.851562 123.847656 159.632812 122.910156 159.058594 122.199219 C 158.480469 121.488281 157.613281 121.078125 156.695312 121.085938 C 155.273438 121.097656 154.050781 122.109375 153.777344 123.511719 C 152.992188 127.257812 152.207031 131.003906 151.421875 134.753906 C 144.949219 138.988281 138.476562 143.222656 132 147.457031 L 132 124.242188 L 140.121094 116.121094 C 140.90625 115.367188 141.21875 114.25 140.945312 113.199219 C 140.671875 112.148438 139.851562 111.328125 138.800781 111.054688 C 137.75 110.78125 136.632812 111.09375 135.878906 111.878906 L 132 115.757812 L 132 108 C 132.011719 107.1875 131.695312 106.410156 131.121094 105.835938 C 130.546875 105.261719 129.765625 104.945312 128.953125 104.960938 Z M 207 107.472656 C 205.34375 107.472656 204 108.816406 204 110.472656 C 204 112.128906 205.34375 113.472656 207 113.472656 C 208.65625 113.472656 210 112.128906 210 110.472656 C 210 108.816406 208.65625 107.472656 207 107.472656 Z M 201 116.472656 C 199.34375 116.472656 198 117.816406 198 119.472656 C 198 121.128906 199.34375 122.472656 201 122.472656 C 202.65625 122.472656 204 121.128906 204 119.472656 C 204 117.816406 202.65625 116.472656 201 116.472656 Z M 81.292969 118.804688 C 79.636719 118.804688 78.292969 120.148438 78.292969 121.804688 C 78.292969 123.460938 79.636719 124.804688 81.292969 124.804688 C 82.949219 124.804688 84.292969 123.460938 84.292969 121.804688 C 84.292969 120.148438 82.949219 118.804688 81.292969 118.804688 Z M 176.707031 118.804688 C 175.050781 118.804688 173.707031 120.148438 173.707031 121.804688 C 173.707031 123.460938 175.050781 124.804688 176.707031 124.804688 C 178.363281 124.804688 179.707031 123.460938 179.707031 121.804688 C 179.707031 120.148438 178.363281 118.804688 176.707031 118.804688 Z M 117 129 C 115.34375 129 114 130.34375 114 132 C 114 133.65625 115.34375 135 117 135 C 118.65625 135 120 133.65625 120 132 C 120 130.34375 118.65625 129 117 129 Z M 141 129 C 139.34375 129 138 130.34375 138 132 C 138 133.65625 139.34375 135 141 135 C 142.65625 135 144 133.65625 144 132 C 144 130.34375 142.65625 129 141 129 Z M 105 150 C 103.34375 150 102 151.34375 102 153 C 102 154.65625 103.34375 156 105 156 C 106.65625 156 108 154.65625 108 153 C 108 151.34375 106.65625 150 105 150 Z M 153 150 C 151.34375 150 150 151.34375 150 153 C 150 154.65625 151.34375 156 153 156 C 154.65625 156 156 154.65625 156 153 C 156 151.34375 154.65625 150 153 150 Z M 117 171 C 115.34375 171 114 172.34375 114 174 C 114 175.65625 115.34375 177 117 177 C 118.65625 177 120 175.65625 120 174 C 120 172.34375 118.65625 171 117 171 Z M 141 171 C 139.34375 171 138 172.34375 138 174 C 138 175.65625 139.34375 177 141 177 C 142.65625 177 144 175.65625 144 174 C 144 172.34375 142.65625 171 141 171 Z M 212.96875 179.960938 C 212.179688 179.976562 211.425781 180.308594 210.878906 180.878906 L 207 184.757812 L 203.121094 180.878906 C 202.554688 180.296875 201.78125 179.972656 200.972656 179.972656 C 199.75 179.972656 198.652344 180.710938 198.191406 181.84375 C 197.730469 182.972656 198.003906 184.269531 198.878906 185.121094 L 202.757812 189 L 198.878906 192.878906 C 198.09375 193.632812 197.78125 194.75 198.054688 195.800781 C 198.328125 196.851562 199.148438 197.671875 200.199219 197.945312 C 201.25 198.21875 202.367188 197.90625 203.121094 197.121094 L 207 193.242188 L 210.878906 197.121094 C 211.632812 197.90625 212.75 198.21875 213.800781 197.945312 C 214.851562 197.671875 215.671875 196.851562 215.945312 195.800781 C 216.21875 194.75 215.90625 193.632812 215.121094 192.878906 L 211.242188 189 L 215.121094 185.121094 C 216.011719 184.261719 216.285156 182.945312 215.8125 181.804688 C 215.335938 180.664062 214.207031 179.929688 212.96875 179.960938 Z M 81.292969 181.195312 C 79.636719 181.195312 78.292969 182.539062 78.292969 184.195312 C 78.292969 185.851562 79.636719 187.195312 81.292969 187.195312 C 82.949219 187.195312 84.292969 185.851562 84.292969 184.195312 C 84.292969 182.539062 82.949219 181.195312 81.292969 181.195312 Z M 176.707031 181.195312 C 175.050781 181.195312 173.707031 182.539062 173.707031 184.195312 C 173.707031 185.851562 175.050781 187.195312 176.707031 187.195312 C 178.363281 187.195312 179.707031 185.851562 179.707031 184.195312 C 179.707031 182.539062 178.363281 181.195312 176.707031 181.195312 Z M 53.96875 185.960938 C 53.179688 185.976562 52.425781 186.308594 51.878906 186.878906 L 48 190.757812 L 44.121094 186.878906 C 43.554688 186.296875 42.78125 185.972656 41.972656 185.972656 C 40.75 185.972656 39.652344 186.710938 39.191406 187.84375 C 38.730469 188.972656 39.003906 190.269531 39.878906 191.121094 L 43.757812 195 L 39.878906 198.878906 C 39.09375 199.632812 38.78125 200.75 39.054688 201.800781 C 39.328125 202.851562 40.148438 203.671875 41.199219 203.945312 C 42.25 204.21875 43.367188 203.90625 44.121094 203.121094 L 48 199.242188 L 51.878906 203.121094 C 52.632812 203.90625 53.75 204.21875 54.800781 203.945312 C 55.851562 203.671875 56.671875 202.851562 56.945312 201.800781 C 57.21875 200.75 56.90625 199.632812 56.121094 198.878906 L 52.242188 195 L 56.121094 191.121094 C 57.011719 190.261719 57.285156 188.945312 56.8125 187.804688 C 56.335938 186.664062 55.207031 185.929688 53.96875 185.960938 Z M 83.96875 206.960938 C 83.179688 206.976562 82.425781 207.308594 81.878906 207.878906 L 78 211.757812 L 74.121094 207.878906 C 73.554688 207.296875 72.78125 206.972656 71.972656 206.972656 C 70.75 206.972656 69.652344 207.710938 69.191406 208.84375 C 68.730469 209.972656 69.003906 211.269531 69.878906 212.121094 L 73.757812 216 L 69.878906 219.878906 C 69.09375 220.632812 68.78125 221.75 69.054688 222.800781 C 69.328125 223.851562 70.148438 224.671875 71.199219 224.945312 C 72.25 225.21875 73.367188 224.90625 74.121094 224.121094 L 78 220.242188 L 81.878906 224.121094 C 82.632812 224.90625 83.75 225.21875 84.800781 224.945312 C 85.851562 224.671875 86.671875 223.851562 86.945312 222.800781 C 87.21875 221.75 86.90625 220.632812 86.121094 219.878906 L 82.242188 216 L 86.121094 212.121094 C 87.011719 211.261719 87.285156 209.945312 86.8125 208.804688 C 86.335938 207.664062 85.207031 206.929688 83.96875 206.960938 Z M 182.96875 206.960938 C 182.179688 206.976562 181.425781 207.308594 180.878906 207.878906 L 177 211.757812 L 173.121094 207.878906 C 172.554688 207.296875 171.78125 206.972656 170.972656 206.972656 C 169.75 206.972656 168.652344 207.710938 168.191406 208.84375 C 167.730469 209.972656 168.003906 211.269531 168.878906 212.121094 L 172.757812 216 L 168.878906 219.878906 C 168.09375 220.632812 167.78125 221.75 168.054688 222.800781 C 168.328125 223.851562 169.148438 224.671875 170.199219 224.945312 C 171.25 225.21875 172.367188 224.90625 173.121094 224.121094 L 177 220.242188 L 180.878906 224.121094 C 181.632812 224.90625 182.75 225.21875 183.800781 224.945312 C 184.851562 224.671875 185.671875 223.851562 185.945312 222.800781 C 186.21875 221.75 185.90625 220.632812 185.121094 219.878906 L 181.242188 216 L 185.121094 212.121094 C 186.011719 211.261719 186.285156 209.945312 185.8125 208.804688 C 185.335938 207.664062 184.207031 206.929688 182.96875 206.960938 Z M 129 207 C 127.34375 207 126 208.34375 126 210 C 126 211.65625 127.34375 213 129 213 C 130.65625 213 132 211.65625 132 210 C 132 208.34375 130.65625 207 129 207 Z M 129 207 "/>
</g>
</svg>
