<?xml version="1.0" encoding="UTF-8"?>
<svg xmlns="http://www.w3.org/2000/svg" xmlns:xlink="http://www.w3.org/1999/xlink" viewBox="0 0 240 240" width="240px" height="240px">
<g id="surface59739722">
<path style=" stroke:none;fill-rule:nonzero;fill:rgb(100%,100%,100%);fill-opacity:1;" d="M 68.953125 17.960938 C 67.296875 17.984375 65.976562 19.34375 66 21 L 66 29.921875 C 66 30 66.003906 30.078125 66.011719 30.152344 C 63.535156 30.296875 61.089844 30.554688 58.714844 31.042969 C 58.703125 30.988281 58.691406 30.9375 58.675781 30.882812 L 57.230469 25.488281 C 56.898438 24.183594 55.738281 23.257812 54.394531 23.226562 C 53.441406 23.203125 52.535156 23.632812 51.949219 24.386719 C 51.367188 25.140625 51.175781 26.125 51.433594 27.039062 L 52.882812 32.4375 C 52.898438 32.503906 52.917969 32.566406 52.941406 32.628906 C 50.597656 33.410156 48.339844 34.363281 46.160156 35.460938 C 46.128906 35.394531 46.097656 35.332031 46.0625 35.265625 L 41.597656 27.539062 C 41.046875 26.554688 39.992188 25.960938 38.867188 26.003906 C 37.808594 26.042969 36.847656 26.640625 36.34375 27.570312 C 35.839844 28.5 35.863281 29.628906 36.40625 30.539062 L 40.863281 38.265625 C 40.898438 38.324219 40.933594 38.378906 40.96875 38.429688 C 38.917969 39.785156 36.996094 41.304688 35.167969 42.929688 C 35.117188 42.871094 35.0625 42.816406 35.003906 42.761719 L 31.054688 38.8125 C 30.488281 38.230469 29.710938 37.902344 28.898438 37.902344 C 27.679688 37.90625 26.582031 38.648438 26.125 39.777344 C 25.667969 40.910156 25.9375 42.203125 26.8125 43.054688 L 30.761719 47.003906 C 30.816406 47.0625 30.875 47.117188 30.9375 47.167969 C 29.308594 48.996094 27.785156 50.917969 26.429688 52.96875 C 26.378906 52.933594 26.324219 52.898438 26.265625 52.863281 L 18.539062 48.402344 C 18.019531 48.09375 17.417969 47.945312 16.808594 47.980469 C 15.484375 48.066406 14.371094 49.015625 14.078125 50.3125 C 13.78125 51.609375 14.378906 52.945312 15.539062 53.59375 L 23.265625 58.0625 C 23.332031 58.097656 23.394531 58.128906 23.460938 58.160156 C 22.363281 60.339844 21.410156 62.597656 20.628906 64.9375 C 20.566406 64.917969 20.503906 64.898438 20.4375 64.882812 L 15.039062 63.433594 C 14.75 63.351562 14.449219 63.316406 14.148438 63.324219 C 12.652344 63.363281 11.414062 64.5 11.25 65.988281 C 11.082031 67.476562 12.039062 68.859375 13.488281 69.230469 L 18.882812 70.675781 C 18.9375 70.6875 18.988281 70.699219 19.042969 70.710938 C 18.554688 73.082031 18.296875 75.527344 18.152344 78.007812 C 18.078125 78 18 78 17.921875 78 L 9 78 C 7.917969 77.984375 6.910156 78.554688 6.367188 79.488281 C 5.820312 80.421875 5.820312 81.578125 6.367188 82.511719 C 6.910156 83.445312 7.917969 84.015625 9 84 L 17.921875 84 C 17.980469 84 18.039062 83.996094 18.09375 83.996094 C 18.238281 86.472656 18.566406 88.902344 19.054688 91.277344 C 18.996094 91.292969 18.941406 91.308594 18.882812 91.324219 L 13.488281 92.773438 C 12.433594 93.03125 11.601562 93.839844 11.3125 94.886719 C 11.023438 95.9375 11.324219 97.058594 12.097656 97.820312 C 12.871094 98.582031 13.996094 98.867188 15.039062 98.566406 L 20.4375 97.121094 C 20.492188 97.105469 20.542969 97.089844 20.59375 97.074219 C 21.375 99.417969 22.332031 101.671875 23.425781 103.851562 C 23.371094 103.878906 23.320312 103.910156 23.265625 103.941406 L 15.539062 108.40625 C 14.566406 108.917969 13.949219 109.921875 13.9375 111.019531 C 13.921875 112.121094 14.511719 113.140625 15.472656 113.679688 C 16.433594 114.214844 17.609375 114.183594 18.539062 113.597656 L 26.265625 109.136719 C 26.320312 109.105469 26.375 109.070312 26.425781 109.039062 C 27.777344 111.085938 29.265625 113.042969 30.890625 114.875 C 30.847656 114.914062 30.804688 114.953125 30.761719 114.996094 L 26.8125 118.945312 C 26.027344 119.699219 25.714844 120.816406 25.988281 121.867188 C 26.261719 122.917969 27.082031 123.738281 28.132812 124.011719 C 29.183594 124.285156 30.300781 123.972656 31.054688 123.1875 L 35.003906 119.238281 C 35.046875 119.195312 35.085938 119.152344 35.125 119.109375 C 35.679688 119.601562 36.246094 120.070312 36.820312 120.539062 C 27.296875 126.925781 21 137.667969 21 150 C 21 169.847656 37.152344 186 57 186 L 69 186 C 70.082031 186.015625 71.089844 185.445312 71.632812 184.511719 C 72.179688 183.578125 72.179688 182.421875 71.632812 181.488281 C 71.089844 180.554688 70.082031 179.984375 69 180 L 57 180 C 40.394531 180 27 166.605469 27 150 C 27 134.273438 39.039062 121.453125 54.398438 120.136719 L 56.683594 119.9375 C 56.792969 119.949219 56.886719 120 57 120 C 58.65625 120 60 118.65625 60 117 C 60 115.582031 58.996094 114.449219 57.671875 114.136719 C 60.351562 102.039062 71.074219 93 84 93 C 84.09375 93 84.386719 93.03125 84.894531 93.046875 L 87.382812 93.117188 L 87.910156 90.6875 C 91.71875 73.148438 107.285156 60 126 60 C 143.042969 60 157.445312 70.917969 162.773438 86.109375 L 163.6875 88.722656 L 166.367188 88.019531 C 168.832031 87.371094 171.378906 87 174 87 C 190.605469 87 204 100.394531 204 117 C 204 119.226562 203.734375 121.398438 203.269531 123.515625 L 202.660156 126.277344 L 205.378906 127.050781 C 216.6875 130.261719 225 140.621094 225 153 C 225 167.949219 212.949219 180 198 180 L 174 180 C 172.917969 179.984375 171.910156 180.554688 171.367188 181.488281 C 170.820312 182.421875 170.820312 183.578125 171.367188 184.511719 C 171.910156 185.445312 172.917969 186.015625 174 186 L 198 186 C 216.191406 186 231 171.191406 231 153 C 231 138.867188 221.925781 127.074219 209.394531 122.390625 C 209.671875 120.617188 210 118.863281 210 117 C 210 97.152344 193.847656 81 174 81 C 171.644531 81 169.445312 81.460938 167.242188 81.898438 C 160.46875 65.617188 144.703125 54 126 54 C 123.863281 54 121.972656 54.777344 119.917969 55.066406 L 122.460938 53.597656 C 123.632812 52.9375 124.222656 51.578125 123.90625 50.273438 C 123.585938 48.964844 122.4375 48.03125 121.09375 47.984375 C 120.523438 47.964844 119.953125 48.109375 119.460938 48.40625 L 111.730469 52.863281 C 111.679688 52.894531 111.625 52.929688 111.574219 52.964844 C 110.222656 50.910156 108.730469 48.960938 107.105469 47.132812 C 107.148438 47.089844 107.195312 47.046875 107.238281 47.003906 L 111.1875 43.054688 C 112.074219 42.191406 112.339844 40.875 111.859375 39.734375 C 111.378906 38.59375 110.246094 37.867188 109.007812 37.90625 C 108.226562 37.925781 107.488281 38.253906 106.945312 38.8125 L 102.996094 42.761719 C 102.949219 42.808594 102.90625 42.855469 102.859375 42.902344 C 101.03125 41.277344 99.085938 39.777344 97.035156 38.425781 C 97.070312 38.375 97.105469 38.320312 97.136719 38.269531 L 101.59375 30.539062 C 102.148438 29.617188 102.164062 28.46875 101.636719 27.53125 C 101.109375 26.589844 100.121094 26.007812 99.046875 26 C 97.949219 25.992188 96.9375 26.582031 96.402344 27.539062 L 91.9375 35.269531 C 91.910156 35.320312 91.882812 35.375 91.855469 35.433594 C 89.679688 34.335938 87.410156 33.398438 85.066406 32.621094 C 85.085938 32.558594 85.101562 32.5 85.117188 32.4375 L 86.566406 27.042969 C 86.832031 26.109375 86.628906 25.105469 86.023438 24.351562 C 85.417969 23.59375 84.488281 23.175781 83.519531 23.226562 C 82.207031 23.296875 81.09375 24.214844 80.769531 25.488281 L 79.324219 30.886719 C 79.308594 30.941406 79.296875 31 79.285156 31.0625 C 76.910156 30.574219 74.476562 30.253906 71.992188 30.113281 C 71.996094 30.050781 72 29.988281 72 29.925781 L 72 21 C 72.011719 20.1875 71.695312 19.410156 71.121094 18.835938 C 70.546875 18.261719 69.765625 17.945312 68.953125 17.960938 Z M 69 36 C 85.449219 36 99.800781 44.808594 107.65625 57.949219 C 95.558594 63.40625 86.519531 74.167969 82.9375 87.199219 C 67.082031 87.730469 54.28125 99.449219 51.769531 114.75 C 48.546875 115.230469 45.453125 116.132812 42.5625 117.394531 C 31.316406 109.214844 24 95.992188 24 81 C 24 56.109375 44.109375 36 69 36 Z M 96 90 C 94.34375 90 93 91.34375 93 93 C 93 94.65625 94.34375 96 96 96 C 97.65625 96 99 94.65625 99 93 C 99 91.34375 97.65625 90 96 90 Z M 168 93 C 166.34375 93 165 94.34375 165 96 C 165 97.65625 166.34375 99 168 99 C 169.65625 99 171 97.65625 171 96 C 171 94.34375 169.65625 93 168 93 Z M 105 96 C 103.34375 96 102 97.34375 102 99 C 102 100.65625 103.34375 102 105 102 C 106.65625 102 108 100.65625 108 99 C 108 97.34375 106.65625 96 105 96 Z M 168 105 C 166.34375 105 165 106.34375 165 108 C 165 109.65625 166.34375 111 168 111 C 169.65625 111 171 109.65625 171 108 C 171 106.34375 169.65625 105 168 105 Z M 69 117 C 67.34375 117 66 118.34375 66 120 C 66 121.65625 67.34375 123 69 123 C 70.65625 123 72 121.65625 72 120 C 72 118.34375 70.65625 117 69 117 Z M 81 123 C 79.34375 123 78 124.34375 78 126 C 78 127.65625 79.34375 129 81 129 C 82.65625 129 84 127.65625 84 126 C 84 124.34375 82.65625 123 81 123 Z M 201 132 C 199.34375 132 198 133.34375 198 135 C 198 136.65625 199.34375 138 201 138 C 202.65625 138 204 136.65625 204 135 C 204 133.34375 202.65625 132 201 132 Z M 195 141 C 193.34375 141 192 142.34375 192 144 C 192 145.65625 193.34375 147 195 147 C 196.65625 147 198 145.65625 198 144 C 198 142.34375 196.65625 141 195 141 Z M 117 150 C 115.917969 149.984375 114.910156 150.554688 114.367188 151.488281 C 113.820312 152.421875 113.820312 153.578125 114.367188 154.511719 C 114.910156 155.445312 115.917969 156.015625 117 156 L 168 156 C 169.082031 156.015625 170.089844 155.445312 170.632812 154.511719 C 171.179688 153.578125 171.179688 152.421875 170.632812 151.488281 C 170.089844 150.554688 169.082031 149.984375 168 150 Z M 57 165 C 55.917969 164.984375 54.910156 165.554688 54.367188 166.488281 C 53.820312 167.421875 53.820312 168.578125 54.367188 169.511719 C 54.910156 170.445312 55.917969 171.015625 57 171 L 132 171 C 133.082031 171.015625 134.089844 170.445312 134.632812 169.511719 C 135.179688 168.578125 135.179688 167.421875 134.632812 166.488281 C 134.089844 165.554688 133.082031 164.984375 132 165 Z M 90 183 C 88.917969 182.984375 87.910156 183.554688 87.367188 184.488281 C 86.820312 185.421875 86.820312 186.578125 87.367188 187.511719 C 87.910156 188.445312 88.917969 189.015625 90 189 L 153 189 C 154.082031 189.015625 155.089844 188.445312 155.632812 187.511719 C 156.179688 186.578125 156.179688 185.421875 155.632812 184.488281 C 155.089844 183.554688 154.082031 182.984375 153 183 Z M 126 198 C 124.917969 197.984375 123.910156 198.554688 123.367188 199.488281 C 122.820312 200.421875 122.820312 201.578125 123.367188 202.511719 C 123.910156 203.445312 124.917969 204.015625 126 204 L 213 204 C 214.082031 204.015625 215.089844 203.445312 215.632812 202.511719 C 216.179688 201.578125 216.179688 200.421875 215.632812 199.488281 C 215.089844 198.554688 214.082031 197.984375 213 198 Z M 126 198 "/>
</g>
</svg>
