<?xml version="1.0" encoding="UTF-8"?>
<svg xmlns="http://www.w3.org/2000/svg" xmlns:xlink="http://www.w3.org/1999/xlink" viewBox="0 0 240 240" width="240px" height="240px">
<g id="surface59741672">
<path style=" stroke:none;fill-rule:nonzero;fill:rgb(100%,100%,100%);fill-opacity:1;" d="M 113.4375 22.132812 L 110.34375 29.871094 L 102.597656 32.964844 L 110.34375 36.066406 L 113.4375 43.804688 L 116.539062 36.066406 L 124.285156 32.964844 L 116.539062 29.871094 Z M 58.40625 27.398438 C 57.3125 27.378906 56.296875 27.957031 55.753906 28.90625 C 55.210938 29.855469 55.226562 31.023438 55.792969 31.957031 C 58.757812 36.820312 60.734375 42.382812 61.410156 48.410156 C 63.921875 70.679688 47.96875 90.679688 25.699219 93.1875 C 19.667969 93.867188 13.808594 93.179688 8.410156 91.371094 C 7.320312 91.007812 6.117188 91.296875 5.316406 92.113281 C 4.511719 92.933594 4.246094 94.140625 4.628906 95.21875 C 9.339844 108.480469 19.316406 118.988281 31.804688 124.597656 C 25.152344 131.035156 21 139.992188 21 150 C 21 169.847656 37.152344 186 57 186 L 69 186 C 70.082031 186.015625 71.089844 185.445312 71.632812 184.511719 C 72.179688 183.578125 72.179688 182.421875 71.632812 181.488281 C 71.089844 180.554688 70.082031 179.984375 69 180 L 57 180 C 40.394531 180 27 166.605469 27 150 C 27 134.273438 39.039062 121.453125 54.398438 120.132812 L 56.683594 119.933594 C 56.792969 119.949219 56.886719 120 57 120 C 58.65625 120 60 118.65625 60 117 C 60 115.582031 58.996094 114.449219 57.675781 114.132812 C 60.351562 102.039062 71.074219 93 84 93 C 84.09375 93 84.386719 93.03125 84.898438 93.046875 L 87.382812 93.117188 L 87.910156 90.683594 C 91.71875 73.148438 107.285156 60 126 60 C 143.042969 60 157.445312 70.917969 162.773438 86.109375 L 163.6875 88.722656 L 166.367188 88.019531 C 168.832031 87.371094 171.378906 87 174 87 C 190.605469 87 204 100.394531 204 117 C 204 119.226562 203.734375 121.398438 203.269531 123.515625 L 202.660156 126.273438 L 205.378906 127.046875 C 216.6875 130.261719 225 140.621094 225 153 C 225 167.949219 212.949219 180 198 180 L 174 180 C 172.917969 179.984375 171.910156 180.554688 171.367188 181.488281 C 170.820312 182.421875 170.820312 183.578125 171.367188 184.511719 C 171.910156 185.445312 172.917969 186.015625 174 186 L 198 186 C 216.191406 186 231 171.191406 231 153 C 231 138.867188 221.925781 127.074219 209.398438 122.390625 C 209.671875 120.617188 210 118.863281 210 117 C 210 97.152344 193.847656 81 174 81 C 171.644531 81 169.445312 81.460938 167.246094 81.894531 C 160.46875 65.617188 144.703125 54 126 54 C 116.691406 54 108.121094 56.882812 101.011719 61.769531 C 94.746094 43.132812 78.175781 29.707031 58.707031 27.414062 C 58.605469 27.40625 58.507812 27.398438 58.40625 27.398438 Z M 63.808594 34.980469 C 79.015625 38.925781 91.542969 50.277344 95.941406 65.789062 C 89.796875 71.472656 85.230469 78.867188 82.9375 87.199219 C 67.082031 87.730469 54.28125 99.449219 51.769531 114.75 C 46.449219 115.546875 41.5 117.488281 37.1875 120.304688 C 26.640625 116.417969 18.015625 108.539062 12.851562 98.449219 C 17.230469 99.257812 21.726562 99.667969 26.367188 99.144531 C 51.859375 96.277344 70.242188 73.226562 67.371094 47.734375 C 66.859375 43.199219 65.507812 38.996094 63.808594 34.980469 Z M 27.035156 43.132812 L 22.917969 53.4375 L 12.597656 57.5625 L 22.917969 61.6875 L 27.035156 72 L 31.160156 61.6875 L 41.472656 57.5625 L 31.160156 53.4375 Z M 96 90 C 94.34375 90 93 91.34375 93 93 C 93 94.65625 94.34375 96 96 96 C 97.65625 96 99 94.65625 99 93 C 99 91.34375 97.65625 90 96 90 Z M 168 93 C 166.34375 93 165 94.34375 165 96 C 165 97.65625 166.34375 99 168 99 C 169.65625 99 171 97.65625 171 96 C 171 94.34375 169.65625 93 168 93 Z M 105 96 C 103.34375 96 102 97.34375 102 99 C 102 100.65625 103.34375 102 105 102 C 106.65625 102 108 100.65625 108 99 C 108 97.34375 106.65625 96 105 96 Z M 168 105 C 166.34375 105 165 106.34375 165 108 C 165 109.65625 166.34375 111 168 111 C 169.65625 111 171 109.65625 171 108 C 171 106.34375 169.65625 105 168 105 Z M 69 117 C 67.34375 117 66 118.34375 66 120 C 66 121.65625 67.34375 123 69 123 C 70.65625 123 72 121.65625 72 120 C 72 118.34375 70.65625 117 69 117 Z M 81 123 C 79.34375 123 78 124.34375 78 126 C 78 127.65625 79.34375 129 81 129 C 82.65625 129 84 127.65625 84 126 C 84 124.34375 82.65625 123 81 123 Z M 201 132 C 199.34375 132 198 133.34375 198 135 C 198 136.65625 199.34375 138 201 138 C 202.65625 138 204 136.65625 204 135 C 204 133.34375 202.65625 132 201 132 Z M 195 141 C 193.34375 141 192 142.34375 192 144 C 192 145.65625 193.34375 147 195 147 C 196.65625 147 198 145.65625 198 144 C 198 142.34375 196.65625 141 195 141 Z M 117 150 C 115.917969 149.984375 114.910156 150.554688 114.367188 151.488281 C 113.820312 152.421875 113.820312 153.578125 114.367188 154.511719 C 114.910156 155.445312 115.917969 156.015625 117 156 L 168 156 C 169.082031 156.015625 170.089844 155.445312 170.632812 154.511719 C 171.179688 153.578125 171.179688 152.421875 170.632812 151.488281 C 170.089844 150.554688 169.082031 149.984375 168 150 Z M 57 165 C 55.917969 164.984375 54.910156 165.554688 54.367188 166.488281 C 53.820312 167.421875 53.820312 168.578125 54.367188 169.511719 C 54.910156 170.445312 55.917969 171.015625 57 171 L 132 171 C 133.082031 171.015625 134.089844 170.445312 134.632812 169.511719 C 135.179688 168.578125 135.179688 167.421875 134.632812 166.488281 C 134.089844 165.554688 133.082031 164.984375 132 165 Z M 90 183 C 88.917969 182.984375 87.910156 183.554688 87.367188 184.488281 C 86.820312 185.421875 86.820312 186.578125 87.367188 187.511719 C 87.910156 188.445312 88.917969 189.015625 90 189 L 153 189 C 154.082031 189.015625 155.089844 188.445312 155.632812 187.511719 C 156.179688 186.578125 156.179688 185.421875 155.632812 184.488281 C 155.089844 183.554688 154.082031 182.984375 153 183 Z M 126 198 C 124.917969 197.984375 123.910156 198.554688 123.367188 199.488281 C 122.820312 200.421875 122.820312 201.578125 123.367188 202.511719 C 123.910156 203.445312 124.917969 204.015625 126 204 L 213 204 C 214.082031 204.015625 215.089844 203.445312 215.632812 202.511719 C 216.179688 201.578125 216.179688 200.421875 215.632812 199.488281 C 215.089844 198.554688 214.082031 197.984375 213 198 Z M 126 198 "/>
</g>
</svg>
