<?xml version="1.0" encoding="UTF-8"?>
<svg xmlns="http://www.w3.org/2000/svg" xmlns:xlink="http://www.w3.org/1999/xlink" viewBox="0 0 240 240" width="240px" height="240px">
<g id="surface60686616">
<path style=" stroke:none;fill-rule:nonzero;fill:rgb(100%,100%,100%);fill-opacity:1;" d="M 102 19.242188 L 99.671875 22.105469 C 99.671875 22.105469 82.339844 43.421875 65 69.550781 C 56.328125 82.613281 47.640625 96.882812 41.082031 110.390625 C 34.519531 123.898438 30 136.566406 30 147 C 30 186.730469 62.269531 219 102 219 C 141.730469 219 174 186.730469 174 147 C 174 136.566406 169.480469 123.898438 162.921875 110.390625 C 156.359375 96.882812 147.671875 82.613281 139.003906 69.550781 C 121.660156 43.421875 104.328125 22.105469 104.328125 22.105469 Z M 183 24 C 181.917969 23.984375 180.910156 24.554688 180.367188 25.488281 C 179.820312 26.421875 179.820312 27.578125 180.367188 28.511719 C 180.910156 29.445312 181.917969 30.015625 183 30 L 204 30 L 204 42 L 198 42 C 196.917969 41.984375 195.910156 42.554688 195.367188 43.488281 C 194.820312 44.421875 194.820312 45.578125 195.367188 46.511719 C 195.910156 47.445312 196.917969 48.015625 198 48 L 204 48 L 204 60 L 192 60 C 190.917969 59.984375 189.910156 60.554688 189.367188 61.488281 C 188.820312 62.421875 188.820312 63.578125 189.367188 64.511719 C 189.910156 65.445312 190.917969 66.015625 192 66 L 204 66 L 204 78 L 198 78 C 196.917969 77.984375 195.910156 78.554688 195.367188 79.488281 C 194.820312 80.421875 194.820312 81.578125 195.367188 82.511719 C 195.910156 83.445312 196.917969 84.015625 198 84 L 204 84 L 204 96 L 192 96 C 190.917969 95.984375 189.910156 96.554688 189.367188 97.488281 C 188.820312 98.421875 188.820312 99.578125 189.367188 100.511719 C 189.910156 101.445312 190.917969 102.015625 192 102 L 204 102 L 204 114 L 198 114 C 196.917969 113.984375 195.910156 114.554688 195.367188 115.488281 C 194.820312 116.421875 194.820312 117.578125 195.367188 118.511719 C 195.910156 119.445312 196.917969 120.015625 198 120 L 204 120 L 204 132 L 192 132 C 190.917969 131.984375 189.910156 132.554688 189.367188 133.488281 C 188.820312 134.421875 188.820312 135.578125 189.367188 136.511719 C 189.910156 137.445312 190.917969 138.015625 192 138 L 204 138 L 204 150 L 198 150 C 196.917969 149.984375 195.910156 150.554688 195.367188 151.488281 C 194.820312 152.421875 194.820312 153.578125 195.367188 154.511719 C 195.910156 155.445312 196.917969 156.015625 198 156 L 204 156 L 204 168 L 192 168 C 190.917969 167.984375 189.910156 168.554688 189.367188 169.488281 C 188.820312 170.421875 188.820312 171.578125 189.367188 172.511719 C 189.910156 173.445312 190.917969 174.015625 192 174 L 204 174 L 204 186 L 198 186 C 196.917969 185.984375 195.910156 186.554688 195.367188 187.488281 C 194.820312 188.421875 194.820312 189.578125 195.367188 190.511719 C 195.910156 191.445312 196.917969 192.015625 198 192 L 204 192 L 204 204 L 183 204 C 181.917969 203.984375 180.910156 204.554688 180.367188 205.488281 C 179.820312 206.421875 179.820312 207.578125 180.367188 208.511719 C 180.910156 209.445312 181.917969 210.015625 183 210 L 210 210 L 210 189.503906 C 210.054688 189.179688 210.054688 188.847656 210 188.527344 L 210 171.503906 C 210.054688 171.179688 210.054688 170.847656 210 170.527344 L 210 153.503906 C 210.054688 153.179688 210.054688 152.847656 210 152.527344 L 210 135.503906 C 210.054688 135.179688 210.054688 134.847656 210 134.527344 L 210 117.503906 C 210.054688 117.179688 210.054688 116.847656 210 116.527344 L 210 99.503906 C 210.054688 99.179688 210.054688 98.847656 210 98.527344 L 210 81.503906 C 210.054688 81.179688 210.054688 80.847656 210 80.527344 L 210 63.503906 C 210.054688 63.179688 210.054688 62.847656 210 62.527344 L 210 45.503906 C 210.054688 45.179688 210.054688 44.847656 210 44.527344 L 210 24 Z M 102 28.882812 C 105.136719 32.792969 118.699219 49.820312 133.996094 72.867188 C 142.578125 85.789062 151.140625 99.886719 157.515625 113.015625 C 162.074219 122.398438 165.441406 131.300781 167.007812 138.78125 C 166.460938 138.28125 165.742188 138 165 138 C 163.34375 138 162 139.34375 162 141 C 162 142.65625 163.34375 144 165 144 C 166.101562 144 167.113281 143.394531 167.636719 142.421875 C 167.851562 144.027344 168 145.578125 168 147 C 168 150.40625 167.738281 153.75 167.242188 157.015625 C 166.675781 156.371094 165.859375 156 165 156 C 163.34375 156 162 157.34375 162 159 C 162 160.65625 163.34375 162 165 162 C 165.46875 162 165.929688 161.890625 166.347656 161.675781 C 164.578125 169.484375 161.433594 176.761719 157.171875 183.242188 C 156.800781 183.082031 156.402344 183 156 183 C 154.34375 183 153 184.34375 153 186 C 153 186.726562 153.265625 187.429688 153.742188 187.976562 C 152.34375 189.742188 150.855469 191.433594 149.285156 193.046875 C 148.714844 192.382812 147.878906 192 147 192 C 145.34375 192 144 193.34375 144 195 C 144 195.808594 144.328125 196.585938 144.90625 197.148438 C 143.160156 198.648438 141.335938 200.058594 139.433594 201.367188 C 138.996094 201.128906 138.5 201 138 201 C 136.34375 201 135 202.34375 135 204 C 135.003906 204.054688 135.007812 204.109375 135.011719 204.164062 C 128.554688 207.898438 121.40625 210.558594 113.800781 211.925781 C 113.355469 210.765625 112.242188 210 111 210 C 109.453125 210 108.160156 211.171875 108.011719 212.714844 C 106.03125 212.890625 104.027344 213 102 213 C 99.96875 213 97.964844 212.890625 95.980469 212.714844 C 95.835938 211.175781 94.542969 210.003906 93 210 C 91.757812 210 90.644531 210.765625 90.199219 211.925781 C 82.59375 210.558594 75.449219 207.894531 68.992188 204.164062 C 68.996094 204.109375 69 204.054688 69 204 C 69 202.34375 67.65625 201 66 201 C 65.5 201 65.003906 201.128906 64.5625 201.367188 C 62.664062 200.058594 60.835938 198.648438 59.085938 197.148438 C 59.667969 196.585938 60 195.8125 60 195 C 60 193.34375 58.65625 192 57 192 C 56.121094 192 55.289062 192.386719 54.71875 193.054688 C 53.148438 191.4375 51.660156 189.746094 50.253906 187.976562 C 50.734375 187.429688 51 186.726562 51 186 C 51 184.34375 49.65625 183 48 183 C 47.59375 183 47.195312 183.082031 46.820312 183.242188 C 42.5625 176.761719 39.421875 169.480469 37.652344 161.679688 C 38.070312 161.890625 38.53125 162 39 162 C 40.65625 162 42 160.65625 42 159 C 42 157.34375 40.65625 156 39 156 C 38.140625 156 37.324219 156.371094 36.753906 157.015625 C 36.261719 153.75 36 150.40625 36 147 C 36 145.578125 36.148438 144.027344 36.363281 142.425781 C 36.886719 143.394531 37.898438 144 39 144 C 40.65625 144 42 142.65625 42 141 C 42 139.34375 40.65625 138 39 138 C 38.257812 138 37.542969 138.277344 36.988281 138.773438 C 38.558594 131.296875 41.925781 122.398438 46.480469 113.015625 C 52.859375 99.886719 61.421875 85.789062 70 72.867188 C 85.300781 49.820312 98.863281 32.792969 102 28.882812 Z M 57 120 C 55.34375 120 54 121.34375 54 123 C 54 124.65625 55.34375 126 57 126 C 58.65625 126 60 124.65625 60 123 C 60 121.34375 58.65625 120 57 120 Z M 75 120 C 73.34375 120 72 121.34375 72 123 C 72 124.65625 73.34375 126 75 126 C 76.65625 126 78 124.65625 78 123 C 78 121.34375 76.65625 120 75 120 Z M 93 120 C 91.34375 120 90 121.34375 90 123 C 90 124.65625 91.34375 126 93 126 C 94.65625 126 96 124.65625 96 123 C 96 121.34375 94.65625 120 93 120 Z M 111 120 C 109.34375 120 108 121.34375 108 123 C 108 124.65625 109.34375 126 111 126 C 112.65625 126 114 124.65625 114 123 C 114 121.34375 112.65625 120 111 120 Z M 129 120 C 127.34375 120 126 121.34375 126 123 C 126 124.65625 127.34375 126 129 126 C 130.65625 126 132 124.65625 132 123 C 132 121.34375 130.65625 120 129 120 Z M 147 120 C 145.34375 120 144 121.34375 144 123 C 144 124.65625 145.34375 126 147 126 C 148.65625 126 150 124.65625 150 123 C 150 121.34375 148.65625 120 147 120 Z M 48 129 C 46.34375 129 45 130.34375 45 132 C 45 133.65625 46.34375 135 48 135 C 49.65625 135 51 133.65625 51 132 C 51 130.34375 49.65625 129 48 129 Z M 66 129 C 64.34375 129 63 130.34375 63 132 C 63 133.65625 64.34375 135 66 135 C 67.65625 135 69 133.65625 69 132 C 69 130.34375 67.65625 129 66 129 Z M 84 129 C 82.34375 129 81 130.34375 81 132 C 81 133.65625 82.34375 135 84 135 C 85.65625 135 87 133.65625 87 132 C 87 130.34375 85.65625 129 84 129 Z M 102 129 C 100.34375 129 99 130.34375 99 132 C 99 133.65625 100.34375 135 102 135 C 103.65625 135 105 133.65625 105 132 C 105 130.34375 103.65625 129 102 129 Z M 120 129 C 118.34375 129 117 130.34375 117 132 C 117 133.65625 118.34375 135 120 135 C 121.65625 135 123 133.65625 123 132 C 123 130.34375 121.65625 129 120 129 Z M 138 129 C 136.34375 129 135 130.34375 135 132 C 135 133.65625 136.34375 135 138 135 C 139.65625 135 141 133.65625 141 132 C 141 130.34375 139.65625 129 138 129 Z M 156 129 C 154.34375 129 153 130.34375 153 132 C 153 133.65625 154.34375 135 156 135 C 157.65625 135 159 133.65625 159 132 C 159 130.34375 157.65625 129 156 129 Z M 57 138 C 55.34375 138 54 139.34375 54 141 C 54 142.65625 55.34375 144 57 144 C 58.65625 144 60 142.65625 60 141 C 60 139.34375 58.65625 138 57 138 Z M 75 138 C 73.34375 138 72 139.34375 72 141 C 72 142.65625 73.34375 144 75 144 C 76.65625 144 78 142.65625 78 141 C 78 139.34375 76.65625 138 75 138 Z M 93 138 C 91.34375 138 90 139.34375 90 141 C 90 142.65625 91.34375 144 93 144 C 94.65625 144 96 142.65625 96 141 C 96 139.34375 94.65625 138 93 138 Z M 111 138 C 109.34375 138 108 139.34375 108 141 C 108 142.65625 109.34375 144 111 144 C 112.65625 144 114 142.65625 114 141 C 114 139.34375 112.65625 138 111 138 Z M 129 138 C 127.34375 138 126 139.34375 126 141 C 126 142.65625 127.34375 144 129 144 C 130.65625 144 132 142.65625 132 141 C 132 139.34375 130.65625 138 129 138 Z M 147 138 C 145.34375 138 144 139.34375 144 141 C 144 142.65625 145.34375 144 147 144 C 148.65625 144 150 142.65625 150 141 C 150 139.34375 148.65625 138 147 138 Z M 48 147 C 46.34375 147 45 148.34375 45 150 C 45 151.65625 46.34375 153 48 153 C 49.65625 153 51 151.65625 51 150 C 51 148.34375 49.65625 147 48 147 Z M 66 147 C 64.34375 147 63 148.34375 63 150 C 63 151.65625 64.34375 153 66 153 C 67.65625 153 69 151.65625 69 150 C 69 148.34375 67.65625 147 66 147 Z M 84 147 C 82.34375 147 81 148.34375 81 150 C 81 151.65625 82.34375 153 84 153 C 85.65625 153 87 151.65625 87 150 C 87 148.34375 85.65625 147 84 147 Z M 102 147 C 100.34375 147 99 148.34375 99 150 C 99 151.65625 100.34375 153 102 153 C 103.65625 153 105 151.65625 105 150 C 105 148.34375 103.65625 147 102 147 Z M 120 147 C 118.34375 147 117 148.34375 117 150 C 117 151.65625 118.34375 153 120 153 C 121.65625 153 123 151.65625 123 150 C 123 148.34375 121.65625 147 120 147 Z M 138 147 C 136.34375 147 135 148.34375 135 150 C 135 151.65625 136.34375 153 138 153 C 139.65625 153 141 151.65625 141 150 C 141 148.34375 139.65625 147 138 147 Z M 156 147 C 154.34375 147 153 148.34375 153 150 C 153 151.65625 154.34375 153 156 153 C 157.65625 153 159 151.65625 159 150 C 159 148.34375 157.65625 147 156 147 Z M 57 156 C 55.34375 156 54 157.34375 54 159 C 54 160.65625 55.34375 162 57 162 C 58.65625 162 60 160.65625 60 159 C 60 157.34375 58.65625 156 57 156 Z M 75 156 C 73.34375 156 72 157.34375 72 159 C 72 160.65625 73.34375 162 75 162 C 76.65625 162 78 160.65625 78 159 C 78 157.34375 76.65625 156 75 156 Z M 93 156 C 91.34375 156 90 157.34375 90 159 C 90 160.65625 91.34375 162 93 162 C 94.65625 162 96 160.65625 96 159 C 96 157.34375 94.65625 156 93 156 Z M 111 156 C 109.34375 156 108 157.34375 108 159 C 108 160.65625 109.34375 162 111 162 C 112.65625 162 114 160.65625 114 159 C 114 157.34375 112.65625 156 111 156 Z M 129 156 C 127.34375 156 126 157.34375 126 159 C 126 160.65625 127.34375 162 129 162 C 130.65625 162 132 160.65625 132 159 C 132 157.34375 130.65625 156 129 156 Z M 147 156 C 145.34375 156 144 157.34375 144 159 C 144 160.65625 145.34375 162 147 162 C 148.65625 162 150 160.65625 150 159 C 150 157.34375 148.65625 156 147 156 Z M 48 165 C 46.34375 165 45 166.34375 45 168 C 45 169.65625 46.34375 171 48 171 C 49.65625 171 51 169.65625 51 168 C 51 166.34375 49.65625 165 48 165 Z M 66 165 C 64.34375 165 63 166.34375 63 168 C 63 169.65625 64.34375 171 66 171 C 67.65625 171 69 169.65625 69 168 C 69 166.34375 67.65625 165 66 165 Z M 84 165 C 82.34375 165 81 166.34375 81 168 C 81 169.65625 82.34375 171 84 171 C 85.65625 171 87 169.65625 87 168 C 87 166.34375 85.65625 165 84 165 Z M 102 165 C 100.34375 165 99 166.34375 99 168 C 99 169.65625 100.34375 171 102 171 C 103.65625 171 105 169.65625 105 168 C 105 166.34375 103.65625 165 102 165 Z M 120 165 C 118.34375 165 117 166.34375 117 168 C 117 169.65625 118.34375 171 120 171 C 121.65625 171 123 169.65625 123 168 C 123 166.34375 121.65625 165 120 165 Z M 138 165 C 136.34375 165 135 166.34375 135 168 C 135 169.65625 136.34375 171 138 171 C 139.65625 171 141 169.65625 141 168 C 141 166.34375 139.65625 165 138 165 Z M 156 165 C 154.34375 165 153 166.34375 153 168 C 153 169.65625 154.34375 171 156 171 C 157.65625 171 159 169.65625 159 168 C 159 166.34375 157.65625 165 156 165 Z M 57 174 C 55.34375 174 54 175.34375 54 177 C 54 178.65625 55.34375 180 57 180 C 58.65625 180 60 178.65625 60 177 C 60 175.34375 58.65625 174 57 174 Z M 75 174 C 73.34375 174 72 175.34375 72 177 C 72 178.65625 73.34375 180 75 180 C 76.65625 180 78 178.65625 78 177 C 78 175.34375 76.65625 174 75 174 Z M 93 174 C 91.34375 174 90 175.34375 90 177 C 90 178.65625 91.34375 180 93 180 C 94.65625 180 96 178.65625 96 177 C 96 175.34375 94.65625 174 93 174 Z M 111 174 C 109.34375 174 108 175.34375 108 177 C 108 178.65625 109.34375 180 111 180 C 112.65625 180 114 178.65625 114 177 C 114 175.34375 112.65625 174 111 174 Z M 129 174 C 127.34375 174 126 175.34375 126 177 C 126 178.65625 127.34375 180 129 180 C 130.65625 180 132 178.65625 132 177 C 132 175.34375 130.65625 174 129 174 Z M 147 174 C 145.34375 174 144 175.34375 144 177 C 144 178.65625 145.34375 180 147 180 C 148.65625 180 150 178.65625 150 177 C 150 175.34375 148.65625 174 147 174 Z M 66 183 C 64.34375 183 63 184.34375 63 186 C 63 187.65625 64.34375 189 66 189 C 67.65625 189 69 187.65625 69 186 C 69 184.34375 67.65625 183 66 183 Z M 84 183 C 82.34375 183 81 184.34375 81 186 C 81 187.65625 82.34375 189 84 189 C 85.65625 189 87 187.65625 87 186 C 87 184.34375 85.65625 183 84 183 Z M 102 183 C 100.34375 183 99 184.34375 99 186 C 99 187.65625 100.34375 189 102 189 C 103.65625 189 105 187.65625 105 186 C 105 184.34375 103.65625 183 102 183 Z M 120 183 C 118.34375 183 117 184.34375 117 186 C 117 187.65625 118.34375 189 120 189 C 121.65625 189 123 187.65625 123 186 C 123 184.34375 121.65625 183 120 183 Z M 138 183 C 136.34375 183 135 184.34375 135 186 C 135 187.65625 136.34375 189 138 189 C 139.65625 189 141 187.65625 141 186 C 141 184.34375 139.65625 183 138 183 Z M 75 192 C 73.34375 192 72 193.34375 72 195 C 72 196.65625 73.34375 198 75 198 C 76.65625 198 78 196.65625 78 195 C 78 193.34375 76.65625 192 75 192 Z M 93 192 C 91.34375 192 90 193.34375 90 195 C 90 196.65625 91.34375 198 93 198 C 94.65625 198 96 196.65625 96 195 C 96 193.34375 94.65625 192 93 192 Z M 111 192 C 109.34375 192 108 193.34375 108 195 C 108 196.65625 109.34375 198 111 198 C 112.65625 198 114 196.65625 114 195 C 114 193.34375 112.65625 192 111 192 Z M 129 192 C 127.34375 192 126 193.34375 126 195 C 126 196.65625 127.34375 198 129 198 C 130.65625 198 132 196.65625 132 195 C 132 193.34375 130.65625 192 129 192 Z M 84 201 C 82.34375 201 81 202.34375 81 204 C 81 205.65625 82.34375 207 84 207 C 85.65625 207 87 205.65625 87 204 C 87 202.34375 85.65625 201 84 201 Z M 102 201 C 100.34375 201 99 202.34375 99 204 C 99 205.65625 100.34375 207 102 207 C 103.65625 207 105 205.65625 105 204 C 105 202.34375 103.65625 201 102 201 Z M 120 201 C 118.34375 201 117 202.34375 117 204 C 117 205.65625 118.34375 207 120 207 C 121.65625 207 123 205.65625 123 204 C 123 202.34375 121.65625 201 120 201 Z M 120 201 "/>
</g>
</svg>
