<?xml version="1.0" encoding="UTF-8"?>
<svg xmlns="http://www.w3.org/2000/svg" xmlns:xlink="http://www.w3.org/1999/xlink" viewBox="0 0 240 240" width="240px" height="240px">
<g id="surface60687314">
<path style=" stroke:none;fill-rule:nonzero;fill:rgb(100%,100%,100%);fill-opacity:1;" d="M 54 18 C 50.25 18 47.054688 19.515625 45.007812 21.828125 C 42.957031 24.136719 42 27.097656 42 30.019531 C 42 32.9375 42.957031 35.894531 45.007812 38.203125 C 46.457031 39.835938 48.613281 40.832031 51 41.414062 L 51 201.609375 C 40.28125 203.019531 32.019531 211.28125 30.609375 222 L 21 222 L 21 228 L 87 228 L 87 222 L 77.390625 222 C 75.980469 211.28125 67.71875 203.019531 57 201.609375 L 57 114 L 59.402344 112.792969 L 59.878906 110.148438 L 58.042969 108.1875 L 57 108 L 57 66 L 59.402344 64.792969 L 59.878906 62.148438 L 58.042969 60.1875 L 57 60 L 57 41.414062 C 59.386719 40.832031 61.542969 39.835938 62.992188 38.203125 C 65.042969 35.894531 66 32.9375 66 30.015625 C 66 27.097656 65.042969 24.136719 62.992188 21.824219 C 60.945312 19.515625 57.75 18 54 18 Z M 54 24 C 56.25 24 57.554688 24.738281 58.507812 25.8125 C 59.457031 26.882812 60 28.429688 60 30.019531 C 60 31.605469 59.457031 33.148438 58.507812 34.21875 C 57.554688 35.289062 56.25 36.03125 54 36.03125 C 51.75 36.03125 50.445312 35.289062 49.492188 34.21875 C 48.542969 33.148438 48 31.605469 48 30.019531 C 48 28.429688 48.542969 26.882812 49.492188 25.8125 C 50.445312 24.738281 51.75 24 54 24 Z M 69 46.171875 L 69 60 L 66.597656 61.207031 L 66.121094 63.851562 L 67.957031 65.8125 L 69 66 L 69 108 L 66.597656 109.207031 L 66.121094 111.851562 L 67.957031 113.8125 L 69 114 L 69 127.898438 L 219 109.148438 L 219 61.800781 L 216.3125 61.519531 C 168.308594 56.515625 120.308594 51.519531 72.3125 46.519531 Z M 75 52.828125 C 81.050781 53.457031 87.097656 54.089844 93.144531 54.722656 L 93.121094 54.851562 L 94.957031 56.8125 L 96 57 L 98.402344 55.792969 L 98.496094 55.277344 C 104.742188 55.929688 110.988281 56.578125 117.234375 57.230469 L 117.125 57.851562 L 118.957031 59.8125 L 120 60 L 122.402344 58.792969 L 122.585938 57.785156 C 128.832031 58.4375 135.078125 59.085938 141.324219 59.738281 L 141.125 60.851562 L 142.957031 62.8125 L 144 63 L 146.402344 61.792969 L 146.671875 60.292969 C 152.917969 60.945312 159.164062 61.59375 165.410156 62.246094 L 165.125 63.851562 L 166.957031 65.8125 L 168 66 L 170.402344 64.792969 L 170.761719 62.800781 C 177.179688 63.46875 183.601562 64.136719 190.019531 64.804688 L 190.957031 65.8125 L 192 66 L 193.625 65.1875 C 200.082031 65.859375 206.542969 66.527344 213 67.203125 L 213 103.851562 L 170.011719 109.226562 L 169.042969 108.1875 L 168 108 L 165.597656 109.207031 L 165.492188 109.785156 L 122.011719 115.226562 L 121.042969 114.1875 L 120 114 L 117.597656 115.207031 L 117.492188 115.789062 L 75 121.101562 Z M 96 63 L 93.597656 64.207031 L 93.121094 66.851562 L 94.957031 68.8125 L 96 69 L 98.402344 67.792969 L 98.878906 65.148438 L 97.042969 63.1875 Z M 120 66 L 117.597656 67.207031 L 117.121094 69.851562 L 118.957031 71.8125 L 120 72 L 122.402344 70.792969 L 122.878906 68.148438 L 121.042969 66.1875 Z M 144 69 L 141.597656 70.207031 L 141.121094 72.851562 L 142.957031 74.8125 L 144 75 L 146.402344 73.792969 L 146.878906 71.152344 L 145.042969 69.1875 Z M 168 72 L 165.597656 73.207031 L 165.121094 75.851562 L 166.957031 77.8125 L 168 78 L 170.402344 76.792969 L 170.878906 74.148438 L 169.042969 72.1875 Z M 192 72 L 189.597656 73.207031 L 189.121094 75.851562 L 190.957031 77.8125 L 192 78 L 194.402344 76.792969 L 194.878906 74.148438 L 193.042969 72.1875 Z M 96 75 L 93.597656 76.207031 L 93.121094 78.851562 L 94.957031 80.8125 L 96 81 L 98.402344 79.792969 L 98.878906 77.148438 L 97.042969 75.1875 Z M 120 78 L 117.597656 79.207031 L 117.121094 81.851562 L 118.957031 83.8125 L 120 84 L 122.402344 82.792969 L 122.878906 80.148438 L 121.042969 78.1875 Z M 144 81 L 141.597656 82.207031 L 141.121094 84.851562 L 142.957031 86.8125 L 144 87 L 146.402344 85.792969 L 146.878906 83.148438 L 145.042969 81.1875 Z M 168 84 L 165.597656 85.207031 L 165.121094 87.851562 L 166.957031 89.8125 L 168 90 L 170.402344 88.792969 L 170.878906 86.152344 L 169.042969 84.1875 Z M 192 84 L 189.597656 85.207031 L 189.121094 87.851562 L 190.957031 89.8125 L 192 90 L 194.402344 88.792969 L 194.878906 86.152344 L 193.042969 84.1875 Z M 96 87 L 93.597656 88.207031 L 93.121094 90.851562 L 94.957031 92.8125 L 96 93 L 98.402344 91.792969 L 98.878906 89.148438 L 97.042969 87.1875 Z M 120 90 L 117.597656 91.207031 L 117.121094 93.851562 L 118.957031 95.8125 L 120 96 L 122.402344 94.792969 L 122.878906 92.152344 L 121.042969 90.1875 Z M 144 93 L 141.597656 94.207031 L 141.121094 96.851562 L 142.957031 98.8125 L 144 99 L 146.402344 97.792969 L 146.878906 95.152344 L 145.042969 93.1875 Z M 168 96 L 165.597656 97.207031 L 165.121094 99.851562 L 166.957031 101.8125 L 168 102 L 170.402344 100.792969 L 170.878906 98.148438 L 169.042969 96.1875 Z M 192 96 L 189.597656 97.207031 L 189.121094 99.851562 L 190.957031 101.8125 L 192 102 L 194.402344 100.792969 L 194.878906 98.148438 L 193.042969 96.1875 Z M 96 99 L 93.597656 100.207031 L 93.121094 102.851562 L 94.957031 104.8125 L 96 105 L 98.402344 103.792969 L 98.878906 101.152344 L 97.042969 99.1875 Z M 120 102 L 117.597656 103.207031 L 117.121094 105.851562 L 118.957031 107.8125 L 120 108 L 122.402344 106.792969 L 122.878906 104.148438 L 121.042969 102.1875 Z M 144 105 L 141.597656 106.207031 L 141.121094 108.851562 L 142.957031 110.8125 L 144 111 L 146.402344 109.792969 L 146.878906 107.152344 L 145.042969 105.1875 Z M 96 111 L 93.597656 112.207031 L 93.121094 114.851562 L 94.957031 116.8125 L 96 117 L 98.402344 115.792969 L 98.878906 113.148438 L 97.042969 111.1875 Z M 54 207 C 62.910156 207 69.925781 213.523438 71.394531 222 L 36.605469 222 C 38.074219 213.523438 45.089844 207 54 207 Z M 54 207 "/>
</g>
</svg>
